<svg xmlns="http://www.w3.org/2000/svg" viewBox="0 0 62.36 41.57"><defs><style>.cls-1{fill:#119e07;}.cls-2{fill:#2489f0;}.cls-3{fill:#f90805;}.cls-4{fill:#fff;}</style></defs><g id="Layer_2" data-name="Layer 2"><g id="Layer_3" data-name="Layer 3"><polygon class="cls-1" points="0 41.57 62.36 41.57 62.36 27.71 0 27.71 0 41.57 0 41.57"/><polygon class="cls-2" points="0 13.86 62.36 13.86 62.36 0 0 0 0 13.86 0 13.86"/><polygon class="cls-3" points="0 27.71 62.36 27.71 62.36 13.86 0 13.86 0 27.71 0 27.71"/><path class="cls-4" d="M34.12,17.48a5.92,5.92,0,1,0,0,6.62,4.94,4.94,0,1,1,0-6.62Z"/><polygon class="cls-4" points="38.12 23.11 36.42 22.31 35.79 24.08 35.16 22.31 33.46 23.12 34.27 21.42 32.5 20.79 34.27 20.16 33.46 18.46 35.16 19.27 35.79 17.49 36.42 19.27 38.12 18.46 37.31 20.16 39.08 20.78 37.31 21.41 38.12 23.11 38.12 23.11"/></g></g></svg>