<?xml version="1.0" encoding="UTF-8"?>
<svg width="60px" height="24px" viewBox="0 0 60 24" version="1.1" xmlns="http://www.w3.org/2000/svg" xmlns:xlink="http://www.w3.org/1999/xlink">
    <!-- Generator: Sketch 60.1 (88133) - https://sketch.com -->
    <title>google pay logo copy</title>
    <desc>Created with Sketch.</desc>
    <g id="GUEST-Check-Out" stroke="none" stroke-width="1" fill="none" fill-rule="evenodd">
        <g id="GUEST---Billing---Apple-User---Google-Pay" transform="translate(-614.000000, -703.000000)" fill-rule="nonzero">
            <g id="CC-types" transform="translate(339.000000, 522.000000)">
                <g id="Google-Pay" transform="translate(0.000000, 165.000000)">
                    <g id="googlePay_" transform="translate(275.098266, 16.000000)">
                        <path d="M28.050578,11.76 L28.050578,18.76 L25.8589738,18.76 L25.8589738,1.42 L31.6510708,1.42 C33.0498006,1.39407398 34.4012933,1.9372559 35.4081067,2.93 C36.3583845,3.83405942 36.9180982,5.08711366 36.9639761,6.41318859 C37.0098539,7.73926353 36.5381329,9.02959539 35.6527054,10 L35.4081067,10.26 C34.3989214,11.2455941 33.046391,11.7783931 31.6510708,11.74 L28.050578,11.76 Z M28.050578,3.56 L28.050578,9.62 L31.6999905,9.62 C32.5130316,9.64715133 33.2990748,9.31997451 33.862243,8.72 C34.7426476,7.85506717 35.0071206,6.5233519 34.5263427,5.3760233 C34.0455648,4.22869469 32.9199899,3.50547615 31.6999905,3.56 L28.050578,3.56 Z" id="Shape" fill="#5F6368"></path>
                        <path d="M42.0024874,6.52 C43.3961224,6.44210999 44.7657333,6.91469532 45.828011,7.84 C46.7858275,8.78641184 47.2960454,10.1101805 47.2271155,11.47 L47.2271155,18.79 L45.1333507,18.79 L45.1333507,17.14 L45.0061594,17.14 C44.2271047,18.405399 42.8584782,19.1635827 41.3958827,19.14 C40.2349065,19.1722814 39.1029553,18.7664598 38.2160997,18 C37.3787711,17.2740123 36.9046692,16.202082 36.9246186,15.08 C36.8845431,13.9353538 37.3918635,12.8423517 38.2845873,12.15 C39.3446973,11.3737185 40.6317307,10.9893097 41.9339998,11.06 C43.0430776,11.0171683 44.1444392,11.2650249 45.1333507,11.78 L45.1333507,11.27 C45.1521003,10.4969245 44.8197622,9.75849631 44.2332275,9.27 C43.6533152,8.73830444 42.8988698,8.44913995 42.1198948,8.46 C40.9551974,8.43063738 39.8603479,9.02618701 39.2336302,10.03 L37.2768407,8.8 C38.3547622,7.24910422 40.1458999,6.3849275 42.0024874,6.52 Z M39.1357908,15.15 C39.1373178,15.7263885 39.4058864,16.2679681 39.8598029,16.61 C40.3452329,16.9974791 40.9464013,17.2022936 41.5622098,17.19 C42.4771703,17.1973018 43.3586035,16.8383786 44.0179807,16.19 C44.7081014,15.5711444 45.1038494,14.6783577 45.1039989,13.74 C44.275747,13.1386943 43.2708537,12.845746 42.2568701,12.91 C41.4662065,12.8787848 40.6869446,13.1103575 40.035914,13.57 C39.5041189,13.9174686 39.1689589,14.5057802 39.1357908,15.15 Z" id="Shape" fill="#5F6368"></path>
                        <polygon id="Shape" fill="#5F6368" points="59.2124514 6.9 51.9234104 24 49.6633185 24 52.373472 18 47.5793376 6.91 49.9568369 6.91 53.4203544 15.45 53.4203544 15.45 56.7860324 6.91"></polygon>
                        <path d="M19.2254572,10.24 C19.2223899,9.56986184 19.1667694,8.90105325 19.0591301,8.24 L9.84265138,8.24 L9.84265138,12.08 L15.1161992,12.08 C14.8894588,13.310048 14.1830995,14.392984 13.1594096,15.08 L13.1594096,17.57 L16.3098408,17.57 C18.2516519,15.6576725 19.310889,12.9946996 19.2254572,10.24 Z" id="Shape" fill="#4285F4"></path>
                        <path d="M9.84265138,20 C12.2234074,20.0707144 14.5405505,19.2085347 16.3196248,17.59 L13.1691936,15.1 C12.1786438,15.7504558 11.0196178,16.0814526 9.84265138,16.05 C7.34461486,16.0082394 5.14612935,14.355065 4.36364067,11.93 L1.12515398,11.93 L1.12515398,14.5 C2.78463793,17.8660011 6.15490001,19.9923501 9.84265138,20 L9.84265138,20 Z" id="Shape" fill="#34A853"></path>
                        <path d="M4.36364067,11.92 C3.95646286,10.6806713 3.95646286,9.33932872 4.36364067,8.1 L4.36364067,5.53 L1.12515398,5.53 C-0.270316712,8.3604757 -0.270316712,11.6995243 1.12515398,14.53 L4.36364067,11.92 Z" id="Shape" fill="#FBBC04"></path>
                        <path d="M9.84265138,4 C11.235669,3.97947696 12.5810298,4.51801591 13.5899033,5.5 L13.5899033,5.5 L16.3783284,2.65 C14.6187448,0.933324288 12.2751133,-0.016940479 9.84265138,-8.13151629e-20 C6.15490001,0.00764992759 2.78463793,2.13399888 1.12515398,5.5 L4.36364067,8.1 C5.15285062,5.6828288 7.34978443,4.03884067 9.84265138,4 Z" id="Shape" fill="#EA4335"></path>
                    </g>
                </g>
            </g>
        </g>
    </g>
</svg>