<?xml version="1.0" encoding="utf-8"?>
<!-- Generator: Adobe Illustrator 27.1.1, SVG Export Plug-In . SVG Version: 6.00 Build 0)  -->
<svg version="1.1" id="Layer_1" xmlns="http://www.w3.org/2000/svg" xmlns:xlink="http://www.w3.org/1999/xlink" x="0px" y="0px"
	 viewBox="0 0 985.8 853.7" style="enable-background:new 0 0 985.8 853.7;" xml:space="preserve">
<style type="text/css">
	.st0{fill:#1D1D1D;}
</style>
<g>
	<path class="st0" d="M0,0l492.9,853.7L985.8,0H0z M73.3,42.3h839.2L492.9,769.1L73.3,42.3z"/>
	<path class="st0" d="M593.8,133.3c-29.4-29.4-68.9-32.4-110.2-33c-0.2,0-8.3,1-8.3,1c-24.6,3-50.1,6.1-70.8,20.7
		c-36.1,23.6-39.6,62.9-43,100.9c-0.8,8.8-1.6,17.9-2.8,26.6l-0.2,1.7l72.8,0.2v-12.6c-0.2-11.3-0.5-23,4.7-31.7
		c10.2-15.4,27.1-22.8,53-22.9c10.1,0.6,34.5,4.4,40.8,24.7c4.1,19.6-11.1,32.3-25.9,44.6c-4.5,3.8-9.1,7.6-13,11.6
		c-18,16.8-30,38.1-35.7,63.3L455,398l83.7-0.2v-1.4c0.2-6.5-0.2-13.6-0.7-21.1c-1.3-20.1-2.7-42.8,9.5-60.5
		c8.7-12.2,20-22.9,30.9-33.2c13.9-13.1,28.3-26.7,37.4-43.7C630.3,203.7,621.6,162.7,593.8,133.3z"/>
	<polygon class="st0" points="422.2,559.6 571.2,559.6 496.7,430.5 	"/>
</g>
</svg>
