<svg id="Illustration_FreeShipping" xmlns="http://www.w3.org/2000/svg" xmlns:xlink="http://www.w3.org/1999/xlink" width="149.263" height="110" viewBox="0 0 149.263 110">
  <defs>
    <clipPath id="clip-path">
      <rect id="Rectangle_391" data-name="Rectangle 391" width="149.263" height="110" fill="none"/>
    </clipPath>
  </defs>
  <g id="Group_882" data-name="Group 882" clip-path="url(#clip-path)">
    <path id="Path_534" data-name="Path 534" d="M66.938,60.419h-46a20.943,20.943,0,0,1-2.583-41.725,20.145,20.145,0,0,1,39.117-5.173,8.932,8.932,0,0,1,12.9,9.907,18.655,18.655,0,0,1-3.433,36.991m-28.49-57.9A17.616,17.616,0,0,0,20.835,19.865a1.261,1.261,0,0,1-1.176,1.24A18.417,18.417,0,0,0,20.942,57.9h46a16.13,16.13,0,0,0,1.639-32.176,1.263,1.263,0,0,1-1.031-1.761,6.4,6.4,0,0,0-9.979-7.471,1.263,1.263,0,0,1-2.035-.66,17.587,17.587,0,0,0-17.084-13.3" fill="#37474f"/>
    <path id="Path_535" data-name="Path 535" d="M375.511,208.451a4.286,4.286,0,0,0-1.737,2.937,3.566,3.566,0,0,0,1.534,2.932c1.33,1.095,1.587,1.785,1.569,2.171-.027.569-.72,1.083-1.367,1.521a4.284,4.284,0,0,0-1.737,2.937,3.569,3.569,0,0,0,1.534,2.933,2.625,2.625,0,0,1,1.186,1.956,2.658,2.658,0,0,1-1.013,1.757.757.757,0,0,0,.905,1.214,4.17,4.17,0,0,0,1.622-2.926,4.014,4.014,0,0,0-1.738-3.171,2.184,2.184,0,0,1-.984-1.664,2.744,2.744,0,0,1,1.08-1.785c.737-.5,1.96-1.329,2.024-2.7.051-1.08-.642-2.2-2.12-3.412a2.186,2.186,0,0,1-.985-1.665,2.744,2.744,0,0,1,1.08-1.785c.737-.5,1.96-1.329,2.024-2.7.051-1.08-.642-2.2-2.12-3.412a2.186,2.186,0,0,1-.985-1.665,2.746,2.746,0,0,1,1.08-1.784c.737-.5,1.96-1.329,2.024-2.7.051-1.08-.642-2.2-2.12-3.411a.757.757,0,1,0-.962,1.169c1.33,1.094,1.587,1.784,1.569,2.171-.027.569-.72,1.083-1.367,1.52a4.286,4.286,0,0,0-1.737,2.937,3.568,3.568,0,0,0,1.534,2.934c1.33,1.094,1.587,1.784,1.569,2.17-.027.569-.72,1.083-1.367,1.52" transform="translate(-238.981 -123.948)" fill="#37474f"/>
    <path id="Path_536" data-name="Path 536" d="M204.075,156.358H126.053a2.885,2.885,0,0,1-2.885-2.885V94.5a2.885,2.885,0,0,1,2.885-2.885h78.022A2.885,2.885,0,0,1,206.96,94.5v58.973a2.885,2.885,0,0,1-2.885,2.885" transform="translate(-78.751 -58.577)" fill="#b0bec5"/>
    <path id="Path_537" data-name="Path 537" d="M211.364,90.786H143.887a1.073,1.073,0,1,1,0-2.146h67.477a1.073,1.073,0,1,1,0,2.146" transform="translate(-91.312 -56.675)" fill="#37474f"/>
    <path id="Path_538" data-name="Path 538" d="M225.543,91.615H202.475A3.475,3.475,0,0,0,199,95.09v40.259a3.475,3.475,0,0,0,3.475,3.475h23.069a3.475,3.475,0,0,0,3.475-3.475V95.09a3.475,3.475,0,0,0-3.475-3.475" transform="translate(-127.237 -58.577)" fill="#37474f"/>
    <path id="Path_539" data-name="Path 539" d="M232.578,137.66h-15.55a1.146,1.146,0,1,1,0-2.291h15.55a1.146,1.146,0,1,1,0,2.291" transform="translate(-138.031 -86.552)" fill="#fff"/>
    <path id="Path_540" data-name="Path 540" d="M232.578,156.182h-15.55a1.146,1.146,0,1,1,0-2.291h15.55a1.146,1.146,0,1,1,0,2.291" transform="translate(-138.031 -98.395)" fill="#fff"/>
    <path id="Path_541" data-name="Path 541" d="M232.578,174.707h-15.55a1.146,1.146,0,1,1,0-2.291h15.55a1.146,1.146,0,1,1,0,2.291" transform="translate(-138.031 -110.239)" fill="#fff"/>
    <path id="Path_542" data-name="Path 542" d="M392.283,101.207,381.75,103.1a.624.624,0,1,0,.22,1.228l10.534-1.892a.624.624,0,0,0-.221-1.229" transform="translate(-243.754 -64.703)" fill="#37474f"/>
    <path id="Path_543" data-name="Path 543" d="M367.26,65.19a.624.624,0,0,0,.88.074l8.176-6.905a.624.624,0,0,0-.806-.953l-8.176,6.905a.624.624,0,0,0-.074.879" transform="translate(-234.725 -36.61)" fill="#37474f"/>
    <path id="Path_544" data-name="Path 544" d="M341.075,40.439,344.7,30.371a.624.624,0,0,0-.99-.688.617.617,0,0,0-.184.264L339.9,40.016a.624.624,0,1,0,1.174.423" transform="translate(-217.302 -18.884)" fill="#37474f"/>
    <path id="Path_545" data-name="Path 545" d="M111.552,197.892h5.494a.757.757,0,1,0,0-1.515h-5.494a.757.757,0,1,0,0,1.515" transform="translate(-70.84 -125.559)" fill="#37474f"/>
    <path id="Path_546" data-name="Path 546" d="M90.231,197.892h2.977a.757.757,0,1,0,0-1.515H90.231a.757.757,0,1,0,0,1.515" transform="translate(-57.208 -125.559)" fill="#37474f"/>
    <path id="Path_547" data-name="Path 547" d="M75.1,197.892h1.326a.757.757,0,0,0,0-1.515H75.1a.757.757,0,1,0,0,1.515" transform="translate(-47.534 -125.559)" fill="#37474f"/>
    <path id="Path_548" data-name="Path 548" d="M63.435,197.892h.7a.757.757,0,0,0,0-1.515h-.7a.757.757,0,1,0,0,1.515" transform="translate(-40.075 -125.559)" fill="#37474f"/>
    <path id="Path_549" data-name="Path 549" d="M53.322,197.892h.348a.757.757,0,1,0,0-1.515h-.348a.757.757,0,1,0,0,1.515" transform="translate(-33.609 -125.559)" fill="#37474f"/>
    <path id="Path_550" data-name="Path 550" d="M122.552,233.176h5.494a.757.757,0,1,0,0-1.515h-5.494a.757.757,0,0,0,0,1.515" transform="translate(-77.873 -148.119)" fill="#37474f"/>
    <path id="Path_551" data-name="Path 551" d="M101.231,233.176h2.977a.757.757,0,1,0,0-1.515h-2.977a.757.757,0,1,0,0,1.515" transform="translate(-64.241 -148.119)" fill="#37474f"/>
    <path id="Path_552" data-name="Path 552" d="M86.1,233.176h1.326a.757.757,0,0,0,0-1.515H86.1a.757.757,0,1,0,0,1.515" transform="translate(-54.567 -148.119)" fill="#37474f"/>
    <path id="Path_553" data-name="Path 553" d="M74.435,233.176h.7a.757.757,0,0,0,0-1.515h-.7a.757.757,0,1,0,0,1.515" transform="translate(-47.108 -148.119)" fill="#37474f"/>
    <path id="Path_554" data-name="Path 554" d="M64.322,233.176h.348a.757.757,0,1,0,0-1.515h-.348a.757.757,0,1,0,0,1.515" transform="translate(-40.642 -148.119)" fill="#37474f"/>
    <path id="Path_555" data-name="Path 555" d="M96.552,268.461h5.494a.757.757,0,1,0,0-1.515H96.552a.757.757,0,0,0,0,1.515" transform="translate(-61.249 -170.68)" fill="#37474f"/>
    <path id="Path_556" data-name="Path 556" d="M75.231,268.461h2.977a.757.757,0,1,0,0-1.515H75.231a.757.757,0,0,0,0,1.515" transform="translate(-47.617 -170.68)" fill="#37474f"/>
    <path id="Path_557" data-name="Path 557" d="M60.1,268.461h1.326a.757.757,0,0,0,0-1.515H60.1a.757.757,0,0,0,0,1.515" transform="translate(-37.943 -170.68)" fill="#37474f"/>
    <path id="Path_558" data-name="Path 558" d="M48.435,268.461h.7a.757.757,0,0,0,0-1.515h-.7a.757.757,0,0,0,0,1.515" transform="translate(-30.484 -170.68)" fill="#37474f"/>
    <path id="Path_559" data-name="Path 559" d="M38.322,268.461h.348a.757.757,0,0,0,0-1.515h-.348a.757.757,0,0,0,0,1.515" transform="translate(-24.018 -170.68)" fill="#37474f"/>
    <path id="Path_560" data-name="Path 560" d="M99.65,232.162a.856.856,0,0,1,.8-.9h20.2a.906.906,0,0,1,0,1.8h-20.2a.856.856,0,0,1-.8-.9" transform="translate(-63.714 -147.864)" fill="#37474f"/>
    <path id="Path_561" data-name="Path 561" d="M141.183,228.07l-1.1-1.319,5.8-6.043-5.8-6.044,1.1-1.319,7.064,7.363Z" transform="translate(-89.57 -136.409)" fill="#37474f"/>
    <path id="Path_562" data-name="Path 562" d="M213.622,37.338a3.644,3.644,0,1,0,3.644,3.644,3.648,3.648,0,0,0-3.644-3.644m0,5.773a2.129,2.129,0,1,1,2.129-2.129,2.131,2.131,0,0,1-2.129,2.129" transform="translate(-134.256 -23.873)" fill="#b0bec5"/>
    <path id="Path_563" data-name="Path 563" d="M173.938,294.8l-4.958-3.477a.758.758,0,0,0-.87,0l-4.523,3.172-4.523-3.172a.758.758,0,0,0-.869,0l-4.523,3.172-4.523-3.172a.758.758,0,0,0-.869,0l-4.523,3.172-4.523-3.172a.759.759,0,0,0-.87,0l-4.523,3.172-4.523-3.172a.758.758,0,0,0-.87,0L123.49,294.8a.757.757,0,1,0,.87,1.24l4.523-3.171,4.523,3.171a.757.757,0,0,0,.87,0l4.523-3.171,4.523,3.171a.758.758,0,0,0,.87,0l4.523-3.171,4.523,3.171a.756.756,0,0,0,.869,0l4.523-3.171,4.523,3.171a.756.756,0,0,0,.869,0l4.523-3.171,4.523,3.171a.757.757,0,1,0,.869-1.24" transform="translate(-78.751 -186.181)" fill="#b0bec5"/>
  </g>
</svg>
