<svg id="Illustration_BirthdayPromo" xmlns="http://www.w3.org/2000/svg" xmlns:xlink="http://www.w3.org/1999/xlink" width="125.394" height="120" viewBox="0 0 125.394 120">
  <defs>
    <clipPath id="clip-path">
      <rect id="Rectangle_396" data-name="Rectangle 396" width="125.394" height="120" fill="none"/>
    </clipPath>
  </defs>
  <rect id="Rectangle_394" data-name="Rectangle 394" width="69.273" height="42.13" transform="translate(19.975 30.619)" fill="#b0bec5"/>
  <rect id="Rectangle_395" data-name="Rectangle 395" width="3.13" height="45.676" transform="translate(53.046 28.756)" fill="#37474f"/>
  <g id="Group_884" data-name="Group 884">
    <g id="Group_883" data-name="Group 883" clip-path="url(#clip-path)">
      <path id="Path_565" data-name="Path 565" d="M143.318,132.79H87.533a.887.887,0,0,1,0-1.774h55.785a.887.887,0,1,1,0,1.774" transform="translate(-60.814 -91.956)" fill="#37474f"/>
      <path id="Path_566" data-name="Path 566" d="M63.827,32.59l4.7,9.656a.626.626,0,0,0,1.126-.547l-4.7-9.657a.626.626,0,1,0-1.126.548" transform="translate(-44.754 -22.242)" fill="#37474f"/>
      <path id="Path_567" data-name="Path 567" d="M29.288,77.29a.626.626,0,0,0-.168-.87l-8.9-6.015a.626.626,0,0,0-.7,1.038l8.9,6.014a.626.626,0,0,0,.869-.168" transform="translate(-13.51 -49.34)" fill="#37474f"/>
      <path id="Path_568" data-name="Path 568" d="M11.381,126.755.67,125.994a.626.626,0,0,0-.089,1.249L11.292,128a.626.626,0,0,0,.089-1.249" transform="translate(0 -88.43)" fill="#37474f"/>
      <path id="Path_569" data-name="Path 569" d="M23.582,208.352l7.375,10.719,4.22-2.905L27.8,205.445a2.566,2.566,0,0,0-4.219,2.907" transform="translate(-16.268 -143.488)" fill="#fff"/>
      <path id="Path_570" data-name="Path 570" d="M26.189,202.667a3.1,3.1,0,0,1,.419.49l7.376,10.721a.783.783,0,0,1-1.289.887l-7.376-10.721a1.548,1.548,0,0,0-1.057-.648,1.848,1.848,0,0,0-1.33.317,1.711,1.711,0,0,0-.542,2.35l7.375,10.719a.783.783,0,1,1-1.289.887L21.1,206.952a3.277,3.277,0,0,1,.944-4.527,3.409,3.409,0,0,1,2.454-.575,3.126,3.126,0,0,1,1.692.818" transform="translate(-14.429 -141.644)" fill="#37474f"/>
      <path id="Path_571" data-name="Path 571" d="M51.974,201.677a.719.719,0,0,1-.678.089,1.449,1.449,0,0,1-.711-.532l-.221-.307-.265-.37c-.1-.146-.217-.32-.347-.512A30.64,30.64,0,0,1,47.8,196.71a31.3,31.3,0,0,1-2.023-5.086c-.285-.956-.54-1.953-.738-2.97s-.354-2.051-.461-3.082a36.007,36.007,0,0,1-.106-5.964,40.768,40.768,0,0,1,.634-4.991c.273-1.426.563-2.586.783-3.391.111-.4.2-.717.265-.93l.1-.328a1.539,1.539,0,0,1,.059-.158l.064-.207a3.641,3.641,0,0,1,1.571-2.064,2.474,2.474,0,0,1,2.2-.218A2.519,2.519,0,0,1,51.1,168l.031-.078a3.2,3.2,0,0,1,1.666-1.782,2.51,2.51,0,0,1,2.157.03,2.813,2.813,0,0,1,1.2,1.161,3.134,3.134,0,0,1,.4,1.59,2.688,2.688,0,0,1,1.351.218,3.038,3.038,0,0,1,1.327,1.134,2.781,2.781,0,0,1,.463,1.552,2.973,2.973,0,0,1,1.269.2,3.274,3.274,0,0,1,1.616,1.333,2.178,2.178,0,0,1,.286,1.758s-.08.263-.188.658-.241.922-.353,1.447-.207,1.047-.268,1.436l-.069.47c-.014.112-.022.177-.022.177a.536.536,0,0,1-.03.118l-.019.151c-.011.1-.026.243-.046.426-.033.365-.075.885-.09,1.495a18.777,18.777,0,0,0,.056,2.034,16.308,16.308,0,0,0,.34,2.19,14.745,14.745,0,0,0,.626,2.034,14.3,14.3,0,0,0,.786,1.66c.263.473.516.853.695,1.12.087.134.168.235.216.306l.077.108c.185.249.052.682-.308.972Z" transform="translate(-31.163 -116.444)" fill="#fff"/>
      <path id="Path_572" data-name="Path 572" d="M60.665,170.143a3.957,3.957,0,0,1,.659.814,3.009,3.009,0,0,1,.373,2.429c0,.016-.081.267-.183.641-.073.267-.215.806-.343,1.4-.1.445-.19.95-.259,1.39l-.087.619a1.412,1.412,0,0,1-.039.2l-.053.479c-.033.366-.073.858-.087,1.433a17.94,17.94,0,0,0,.054,1.943,15.313,15.313,0,0,0,.321,2.072,13.806,13.806,0,0,0,.59,1.918,13.43,13.43,0,0,0,.739,1.561c.236.425.463.77.658,1.059l.007.01c.041.064.083.12.123.175s.056.076.078.107l.069.1a1.573,1.573,0,0,1-.462,2.113l-12.3,9.77a1.543,1.543,0,0,1-1.448.232,2.288,2.288,0,0,1-1.138-.842l-.488-.679c-.079-.112-.161-.234-.25-.368l-.11-.163a31.246,31.246,0,0,1-2-3.426,31.855,31.855,0,0,1-2.077-5.222c-.313-1.051-.568-2.077-.757-3.048-.2-1.035-.363-2.1-.472-3.155a36.647,36.647,0,0,1-.109-6.1,41.2,41.2,0,0,1,.646-5.092c.227-1.184.5-2.346.8-3.457.114-.412.2-.731.271-.951l.1-.326c.022-.072.047-.14.074-.207l.052-.167a4.5,4.5,0,0,1,1.944-2.536,3.243,3.243,0,0,1,3.305-.1A3.949,3.949,0,0,1,50.5,163.41a3.366,3.366,0,0,1,2.863.048,3.665,3.665,0,0,1,1.554,1.5,3.987,3.987,0,0,1,.434,1.187,3.593,3.593,0,0,1,.922.264,3.894,3.894,0,0,1,1.693,1.445,3.741,3.741,0,0,1,.512,1.205,3.953,3.953,0,0,1,.818.218,4.155,4.155,0,0,1,1.371.864m-1.492,7.049.02-.156.068-.468c.045-.285.138-.845.278-1.492s.286-1.205.364-1.49c.107-.39.186-.652.2-.681a1.374,1.374,0,0,0-.2-1.083,2.268,2.268,0,0,0-.381-.469,2.487,2.487,0,0,0-.821-.517,2.122,2.122,0,0,0-.911-.144l-.908.064.015-.91a1.946,1.946,0,0,0-.329-1.085,2.222,2.222,0,0,0-.962-.823,1.864,1.864,0,0,0-.932-.152l-.938.094.02-.942a2.294,2.294,0,0,0-.292-1.166,1.991,1.991,0,0,0-.84-.82,1.684,1.684,0,0,0-1.45-.014,2.374,2.374,0,0,0-1.225,1.322l-.524,1.346-.907-1.015a1.685,1.685,0,0,0-.635-.453,1.642,1.642,0,0,0-1.467.16,2.812,2.812,0,0,0-1.2,1.593l-.078.252-.019.044a.587.587,0,0,0-.025.066l-.1.321c-.064.21-.151.517-.261.914-.291,1.068-.55,2.187-.768,3.326a39.544,39.544,0,0,0-.62,4.885,35.079,35.079,0,0,0,.1,5.826c.1,1.009.255,2.02.45,3.007.179.919.421,1.892.719,2.893a30.216,30.216,0,0,0,1.969,4.949,29.619,29.619,0,0,0,1.9,3.244l.111.166c.08.12.154.231.224.329l.482.671a.643.643,0,0,0,.267.218L61.781,189.3l.018-.016,0-.006c-.046-.062-.109-.148-.177-.251-.155-.23-.439-.655-.728-1.174a15.154,15.154,0,0,1-.833-1.758,15.479,15.479,0,0,1-.663-2.153,17.046,17.046,0,0,1-.358-2.3,19.527,19.527,0,0,1-.06-2.13c.015-.628.058-1.157.094-1.549l.08-.706Z" transform="translate(-29.198 -114.484)" fill="#37474f"/>
      <path id="Path_573" data-name="Path 573" d="M62.6,166.908a.626.626,0,0,1,.145.7l-.164.384c-.093.223-.239.572-.4,1-.366.931-.755,2.057-1.067,3.093-.308,1.021-.606,2.179-.818,3.179-.087.408-.162.786-.212,1.065l-.075.415a.626.626,0,1,1-1.232-.224l.075-.413c.052-.29.13-.683.219-1.1.219-1.032.527-2.227.844-3.28s.723-2.229,1.1-3.187c.17-.438.319-.8.417-1.03l.165-.388a.626.626,0,0,1,1.007-.209" transform="translate(-41.246 -117.026)" fill="#37474f"/>
      <path id="Path_574" data-name="Path 574" d="M77.572,173.26a.627.627,0,0,1,.145.7l-.155.365c-.087.212-.207.5-.341.85-.325.829-.666,1.823-.939,2.73s-.531,1.913-.717,2.79c-.081.38-.144.7-.185.927l-.066.364a.626.626,0,0,1-1.232-.225l.065-.359c.042-.238.109-.573.192-.966.192-.91.463-1.964.743-2.891s.635-1.966.97-2.822c.138-.359.262-.657.352-.876l.159-.376a.627.627,0,0,1,1.007-.21" transform="translate(-51.989 -121.485)" fill="#37474f"/>
      <path id="Path_575" data-name="Path 575" d="M90.411,183.836a.628.628,0,0,1,.155.676s-.134.355-.313.879c-.211.62-.43,1.335-.6,1.962s-.344,1.36-.467,1.98c-.108.535-.166.894-.166.9a.626.626,0,0,1-1.237-.2c0-.015.062-.388.175-.946.129-.645.306-1.4.487-2.061s.4-1.394.624-2.039c.186-.544.32-.9.326-.916a.628.628,0,0,1,1.017-.233" transform="translate(-61.606 -128.908)" fill="#37474f"/>
      <path id="Path_576" data-name="Path 576" d="M70.043,248.331l.06.121.163.336.254.53c.1.211.21.445.33.707l.4.869.448,1.015c.326.726.659,1.539,1.033,2.429a136.109,136.109,0,0,1,4.623,13.2c.719,2.436,1.362,4.9,1.905,7.22.293,1.156.511,2.294.739,3.366l.326,1.564c.1.508.179,1,.264,1.473l.453,2.58c.119.773.208,1.45.288,2.006.156,1.113.245,1.748.245,1.748L60.853,290.14l-.2-1.444c-.067-.46-.138-1.018-.236-1.658s-.24-1.361-.379-2.148c-.07-.394-.137-.8-.217-1.228s-.181-.861-.275-1.31c-.193-.9-.37-1.85-.62-2.825-.457-1.957-1-4.036-1.61-6.1a115.2,115.2,0,0,0-3.9-11.137c-.309-.731-.585-1.41-.846-1.989l-.36-.816-.31-.675c-.094-.2-.177-.387-.249-.534l-.183-.383c-.05-.1-.088-.184-.111-.229l-.036-.072Z" transform="translate(-36.02 -174.295)" fill="#b0bec5"/>
      <path id="Path_577" data-name="Path 577" d="M58.223,288.633a1.144,1.144,0,0,0,.167-.011,1.112,1.112,0,0,0,.946-1.257l-.2-1.444c-.025-.17-.049-.349-.076-.539-.046-.336-.1-.717-.162-1.131,0-.009,0-.017,0-.026l-.379-2.148c-.026-.145-.051-.289-.076-.436-.045-.262-.092-.529-.143-.8,0-.008,0-.016,0-.024l-.275-1.31c-.056-.259-.109-.518-.163-.78-.138-.67-.281-1.364-.465-2.082-.483-2.068-1.029-4.137-1.623-6.149a116.123,116.123,0,0,0-3.936-11.248c-.1-.226-.185-.44-.272-.649-.2-.489-.4-.95-.586-1.367l-.357-.812L50.6,256.4l-.31-.674c-.04-.086-.077-.168-.112-.243l16.731-8.276c.1.2.2.418.309.662l.4.863.445,1.007c.241.537.488,1.128.75,1.753q.134.322.276.658a135.564,135.564,0,0,1,4.58,13.082c.692,2.346,1.328,4.755,1.89,7.161l.005.02c.21.832.383,1.665.55,2.47.06.289.119.574.18.855l.322,1.548c.062.328.118.651.174.964.029.166.058.329.086.489l.45,2.564c.078.508.144.979.2,1.4q.043.313.083.588l.244,1.744a1.113,1.113,0,0,0,2.2-.309l-.245-1.749c-.027-.185-.053-.378-.082-.583-.06-.426-.127-.91-.208-1.437,0-.008,0-.016,0-.023l-.453-2.58c-.029-.162-.057-.322-.086-.485-.057-.326-.116-.661-.181-1l0-.021-.326-1.564c-.061-.281-.119-.563-.178-.847-.171-.825-.348-1.679-.57-2.554-.571-2.444-1.217-4.891-1.919-7.272a137.925,137.925,0,0,0-4.661-13.311l-.276-.659c-.267-.64-.52-1.244-.77-1.8l-.445-1.008-.007-.016-.4-.869c-.122-.267-.233-.506-.34-.728l-.481-1a1.113,1.113,0,0,0-1.49-.5l-18.722,9.26a1.112,1.112,0,0,0-.5,1.493l.036.072.006.011c.02.039.053.108.1.2l.184.385c.069.14.146.31.241.517l.308.669.356.808,0,.01c.176.389.363.838.562,1.314q.133.317.273.65a114.048,114.048,0,0,1,3.854,11.016c.583,1.978,1.12,4.009,1.594,6.039l.006.024c.172.671.31,1.342.444,1.99q.083.4.166.792l.272,1.293c.049.259.093.513.135.761.026.151.052.3.078.445L56.7,284.6c.06.394.111.762.155,1.087.027.2.053.38.077.551l.2,1.441a1.112,1.112,0,0,0,1.09.957" transform="translate(-33.402 -171.676)" fill="#b0bec5"/>
      <path id="Path_578" data-name="Path 578" d="M95.66,307.454l.05,0a.494.494,0,0,0,.448-.537,59.9,59.9,0,0,0-1.486-7.884,136.678,136.678,0,0,0-7.323-21.439.494.494,0,1,0-.908.391,135.68,135.68,0,0,1,7.271,21.281A60.223,60.223,0,0,1,95.173,307a.494.494,0,0,0,.487.45" transform="translate(-60.641 -194.623)" fill="#37474f"/>
      <path id="Path_579" data-name="Path 579" d="M99.68,341.868a.495.495,0,0,0,.213-.943,23.212,23.212,0,0,0-9.722-1.718,37.965,37.965,0,0,0-5.229.357.495.495,0,0,0,.152.977c.087-.014,8.779-1.322,14.383,1.281a.5.5,0,0,0,.2.047" transform="translate(-59.324 -238.077)" fill="#37474f"/>
      <path id="Path_580" data-name="Path 580" d="M83.655,325.816a.491.491,0,0,0,.267-.076c.067-.042,6.819-4.232,13.151-3.749a.495.495,0,0,0,.075-.986c-6.666-.508-13.466,3.718-13.753,3.9a.495.495,0,0,0,.26.913" transform="translate(-58.37 -225.273)" fill="#37474f"/>
      <path id="Path_581" data-name="Path 581" d="M133.68,47.871l-2.4-.244c-.39-.04-.977-.08-1.656-.127a67.943,67.943,0,0,1-10.409-1.333c-4.993-1.156-8.014-2.993-9.236-5.615-1.192-2.557-.528-5.594,1.974-9.024,2.04-2.8,4.292-4.216,6.7-4.216,3.581,0,7.1,3.17,10.451,9.422a61.769,61.769,0,0,1,3.826,8.847Zm-15.031-17.43c-1.347,0-2.749.986-4.166,2.929-1.78,2.441-2.34,4.411-1.666,5.858.766,1.644,3.223,2.989,7.105,3.888a61.6,61.6,0,0,0,9.211,1.211,57.678,57.678,0,0,0-2.811-6.149c-2.682-4.99-5.407-7.737-7.674-7.737" transform="translate(-76.788 -19.169)" fill="#37474f"/>
      <path id="Path_582" data-name="Path 582" d="M175.527,47.871l.753-2.291a61.8,61.8,0,0,1,3.827-8.847c3.354-6.252,6.87-9.422,10.451-9.422,2.4,0,4.656,1.419,6.7,4.216,2.5,3.431,3.166,6.467,1.974,9.025-1.222,2.622-4.243,4.459-9.236,5.615A67.945,67.945,0,0,1,179.582,47.5c-.679.047-1.265.087-1.656.127Zm15.031-17.43c-2.267,0-4.992,2.748-7.674,7.737a57.667,57.667,0,0,0-2.811,6.149,61.6,61.6,0,0,0,9.211-1.211c3.882-.9,6.339-2.244,7.105-3.888.674-1.447.113-3.417-1.666-5.858-1.417-1.944-2.819-2.929-4.166-2.929" transform="translate(-123.196 -19.169)" fill="#37474f"/>
      <path id="Path_583" data-name="Path 583" d="M162.847,27.032l-3.119-.262A34.231,34.231,0,0,0,156.39,8.726,27.371,27.371,0,0,0,152.046,2.2L154.27,0a29.788,29.788,0,0,1,4.865,7.215,37.345,37.345,0,0,1,3.711,19.816" transform="translate(-106.716)" fill="#37474f"/>
      <path id="Path_584" data-name="Path 584" d="M176.412,81.871c0,1.917-2.237,3.471-5,3.471s-5-1.554-5-3.471,2.237-3.471,5-3.471,5,1.554,5,3.471" transform="translate(-116.805 -55.026)" fill="#37474f"/>
      <path id="Path_585" data-name="Path 585" d="M147.851,261.284a3.541,3.541,0,0,0,2.428,1.436,2.949,2.949,0,0,0,2.424-1.268c.9-1.1,1.475-1.312,1.795-1.3.47.022.9.595,1.257,1.13a3.54,3.54,0,0,0,2.428,1.436,2.95,2.95,0,0,0,2.424-1.268,2.171,2.171,0,0,1,1.617-.981,2.2,2.2,0,0,1,1.453.838.626.626,0,0,0,1-.748,3.45,3.45,0,0,0-2.419-1.341,3.318,3.318,0,0,0-2.621,1.436,1.806,1.806,0,0,1-1.376.814,2.267,2.267,0,0,1-1.476-.893,3.109,3.109,0,0,0-2.232-1.673c-.893-.043-1.816.531-2.821,1.753a1.805,1.805,0,0,1-1.376.814,2.267,2.267,0,0,1-1.476-.893,3.109,3.109,0,0,0-2.231-1.673c-.893-.042-1.816.531-2.821,1.753a1.806,1.806,0,0,1-1.376.814,2.265,2.265,0,0,1-1.475-.893,3.11,3.11,0,0,0-2.232-1.674c-.893-.042-1.816.531-2.821,1.753a.626.626,0,1,0,.967.8c.9-1.1,1.475-1.312,1.794-1.3.471.022.9.595,1.257,1.13a3.54,3.54,0,0,0,2.427,1.436,2.95,2.95,0,0,0,2.425-1.268c.9-1.1,1.475-1.312,1.794-1.3.47.022.9.595,1.257,1.13" transform="translate(-95.303 -181.713)" fill="#37474f"/>
      <path id="Path_586" data-name="Path 586" d="M173.939,294.846h-4.471v-4.47a.626.626,0,1,0-1.252,0v4.47h-4.471a.626.626,0,0,0,0,1.252h4.471v4.471a.626.626,0,1,0,1.252,0V296.1h4.471a.626.626,0,0,0,0-1.252" transform="translate(-114.488 -203.365)" fill="#37474f"/>
      <path id="Path_587" data-name="Path 587" d="M305.417,84.781a16.174,16.174,0,1,1-19.111-12.57,16.175,16.175,0,0,1,19.111,12.57" transform="translate(-191.889 -50.446)" fill="#37474f"/>
      <path id="Path_588" data-name="Path 588" d="M307.7,113.95a.706.706,0,0,1-.589-1.094l10.91-16.588a.706.706,0,1,1,1.179.775l-10.91,16.588a.7.7,0,0,1-.59.318" transform="translate(-215.471 -67.345)" fill="#fff"/>
      <path id="Path_589" data-name="Path 589" d="M302.137,110.056a3.626,3.626,0,0,1-3.026-5.618,3.6,3.6,0,0,1,2.3-1.558,3.625,3.625,0,1,1,.73,7.176m.006-5.84a2.232,2.232,0,0,0-.45.046,2.211,2.211,0,1,0,.45-.046" transform="translate(-209.516 -72.155)" fill="#fff"/>
      <path id="Path_590" data-name="Path 590" d="M336.108,132.4a3.633,3.633,0,1,1,.736-.076,3.638,3.638,0,0,1-.736.076m.006-5.841a2.24,2.24,0,0,0-.451.046,2.212,2.212,0,1,0,.451-.046" transform="translate(-233.359 -87.836)" fill="#fff"/>
      <path id="Path_591" data-name="Path 591" d="M350.829,30.17l-1.955,7.979a.479.479,0,1,1-.93-.228l1.955-7.979a.479.479,0,0,1,.931.228" transform="translate(-244.2 -20.759)" fill="#37474f"/>
      <path id="Path_592" data-name="Path 592" d="M375.092,58.03a.479.479,0,0,1-.015-.677l5.682-5.933a.479.479,0,0,1,.692.663l-5.683,5.933a.479.479,0,0,1-.677.015" transform="translate(-263.161 -35.986)" fill="#37474f"/>
      <path id="Path_593" data-name="Path 593" d="M391.27,92.135l7.888-2.3a.479.479,0,0,1,.268.92l-7.888,2.3a.479.479,0,0,1-.268-.92" transform="translate(-274.377 -63.041)" fill="#37474f"/>
      <path id="Path_594" data-name="Path 594" d="M318.035,219.114a2.562,2.562,0,1,1,2.425,4.513l-12.182,6.55-2.427-4.512Z" transform="translate(-214.667 -153.574)" fill="#fff"/>
      <path id="Path_595" data-name="Path 595" d="M305.8,228.784a.782.782,0,0,0,1.01.239l12.182-6.55a3.344,3.344,0,1,0-3.167-5.891l-12.184,6.551a.783.783,0,0,0,.742,1.379l12.184-6.551a1.779,1.779,0,1,1,1.684,3.135l-12.181,6.55a.783.783,0,0,0-.319,1.06.8.8,0,0,0,.05.08" transform="translate(-212.824 -151.729)" fill="#37474f"/>
      <path id="Path_596" data-name="Path 596" d="M258.345,169.488a2.387,2.387,0,0,1,2.244,2.273,2.342,2.342,0,0,1,2.567-1.83,2.386,2.386,0,0,1,2.243,2.274,2.342,2.342,0,0,1,2.567-1.832,2.367,2.367,0,0,1,2.238,2.451l1.047-11.651a2.406,2.406,0,0,1,4.791.43l-2.893,31.87-19.319-1.089,1.922-20.876a2.326,2.326,0,0,1,2.594-2.02" transform="translate(-178.154 -111.621)" fill="#fff"/>
      <path id="Path_597" data-name="Path 597" d="M251.032,190.342l1.922-20.873a2.977,2.977,0,0,1,1.16-2.1,3.309,3.309,0,0,1,2.339-.676,3.361,3.361,0,0,1,2.329,1.228,3.3,3.3,0,0,1,2.481-.785,3.359,3.359,0,0,1,2.329,1.228,3.3,3.3,0,0,1,2.481-.785,3.424,3.424,0,0,1,1.572.541l.807-8.983a3.346,3.346,0,0,1,3.51-2.887,3.281,3.281,0,0,1,2.54,1.721,3.084,3.084,0,0,1,.4,1.745l-2.893,31.87a.835.835,0,0,1-.878.758l-19.319-1.09a.835.835,0,0,1-.585-.288.857.857,0,0,1-.1-.139.834.834,0,0,1-.1-.483m22.212-30.777a1.427,1.427,0,0,0-.2-.783,1.656,1.656,0,0,0-1.23-.871,1.688,1.688,0,0,0-1.7,1.373l-1.047,11.651a.835.835,0,0,1-1.663-.148,1.255,1.255,0,0,0-.16-.723,1.684,1.684,0,0,0-1.32-.822,1.516,1.516,0,0,0-1.671,1.148.835.835,0,0,1-1.656-.15,1.257,1.257,0,0,0-.165-.62,1.683,1.683,0,0,0-1.318-.821,1.517,1.517,0,0,0-1.671,1.147.835.835,0,0,1-1.656-.149,1.26,1.26,0,0,0-.165-.62,1.683,1.683,0,0,0-1.318-.821,1.651,1.651,0,0,0-1.165.33,1.329,1.329,0,0,0-.523.935l-1.843,20.014,17.65,1Z" transform="translate(-176.188 -109.657)" fill="#37474f"/>
      <path id="Path_598" data-name="Path 598" d="M251.7,262.3l-.01.134c-.007.084-.018.209-.032.372s-.032.355-.053.585-.047.49-.078.777l-.1.951-.134,1.1c-.091.79-.222,1.659-.355,2.615a136.232,136.232,0,0,1-2.779,13.707c-.628,2.46-1.333,4.9-2.056,7.179-.34,1.143-.735,2.232-1.086,3.27l-.519,1.511c-.177.485-.358.952-.527,1.4-.341.9-.654,1.719-.93,2.448-.293.724-.563,1.352-.778,1.871l-.684,1.628-19.157-8.324.564-1.345c.178-.429.4-.946.645-1.546s.49-1.292.773-2.039c.141-.374.293-.761.441-1.166l.433-1.266c.293-.871.628-1.78.912-2.745.608-1.915,1.2-3.98,1.736-6.065a115.415,115.415,0,0,0,2.347-11.563c.108-.786.219-1.511.29-2.142.038-.316.075-.612.109-.886l.078-.738c.024-.224.046-.423.059-.586s.028-.308.038-.423.019-.2.022-.253.006-.081.006-.081Z" transform="translate(-156.105 -182.964)" fill="#b0bec5"/>
      <path id="Path_599" data-name="Path 599" d="M219.216,291.857a1.114,1.114,0,0,0,1.605-.52l.564-1.345c.066-.158.136-.325.211-.5.132-.312.282-.667.44-1.054l.009-.025.773-2.04.157-.414c.1-.248.192-.5.288-.763l.008-.023.433-1.267c.085-.251.171-.5.259-.753.224-.648.456-1.316.665-2.027.643-2.024,1.231-4.081,1.75-6.115a116.073,116.073,0,0,0,2.371-11.678c.033-.244.066-.473.1-.7.075-.524.145-1.02.2-1.474l.108-.881c0-.006,0-.012,0-.018l.078-.738c.01-.095.019-.183.028-.266l18.61,1.446c-.019.22-.045.46-.074.727l-.1.944-.133,1.093c-.068.585-.157,1.219-.253,1.89q-.049.345-.1.707a135.36,135.36,0,0,1-2.755,13.583c-.605,2.37-1.291,4.765-2.038,7.12,0,.007,0,.013-.006.02-.245.823-.522,1.627-.79,2.4-.1.279-.191.554-.283.826l-.514,1.495c-.115.314-.231.62-.344.917-.06.157-.119.312-.176.465l-.925,2.433c-.193.476-.377.915-.54,1.3q-.123.291-.23.548l-.682,1.624a1.112,1.112,0,0,0,2.051.862l.684-1.628c.072-.172.147-.352.227-.543.167-.4.357-.846.557-1.341l.008-.022.93-2.448c.058-.154.116-.306.174-.461.118-.309.239-.627.358-.953l.007-.02.519-1.511c.093-.273.186-.544.281-.819.275-.8.56-1.621.817-2.486.759-2.392,1.456-4.824,2.07-7.231a137.7,137.7,0,0,0,2.8-13.822c.034-.246.067-.479.1-.708.1-.686.189-1.334.259-1.941l.134-1.094c0-.006,0-.011,0-.017l.1-.951c.031-.292.059-.553.08-.8l.1-1.1a1.113,1.113,0,0,0-1.023-1.194l-20.825-1.618a1.112,1.112,0,0,0-1.2,1.026l-.006.081s0,.008,0,.012c0,.044-.01.12-.019.222l-.038.425c-.013.155-.032.34-.057.567l-.078.732-.107.877s0,.007,0,.011c-.048.424-.116.906-.189,1.416-.032.226-.065.459-.1.7a113.941,113.941,0,0,1-2.323,11.438c-.51,2-1.088,4.017-1.719,6l-.007.024c-.2.664-.419,1.312-.636,1.938q-.135.388-.263.766l-.428,1.25c-.091.248-.183.488-.273.723-.055.143-.109.284-.16.423l-.768,2.025c-.15.369-.294.711-.422,1.013q-.115.273-.215.512l-.562,1.342a1.113,1.113,0,0,0,.447,1.38" transform="translate(-153.485 -180.345)" fill="#b0bec5"/>
      <path id="Path_600" data-name="Path 600" d="M256.385,307.905l.044.024a.5.5,0,0,0,.659-.233,60.125,60.125,0,0,0,2.756-7.535,136.679,136.679,0,0,0,4.671-22.168.494.494,0,1,0-.981-.129A135.662,135.662,0,0,1,258.9,299.87a60.293,60.293,0,0,1-2.7,7.4.494.494,0,0,0,.189.635" transform="translate(-179.782 -194.722)" fill="#37474f"/>
      <path id="Path_601" data-name="Path 601" d="M259.2,340.242a.495.495,0,0,0,.665-.7,23.218,23.218,0,0,0-7.475-6.449,38.028,38.028,0,0,0-4.676-2.368.494.494,0,0,0-.369.917c.082.033,8.22,3.355,11.7,8.457a.5.5,0,0,0,.151.144" transform="translate(-173.382 -232.099)" fill="#37474f"/>
      <path id="Path_602" data-name="Path 602" d="M249.407,325.355a.494.494,0,0,0,.268.072c.08,0,8.024-.149,13.219,3.5a.494.494,0,0,0,.568-.809c-5.469-3.846-13.473-3.693-13.811-3.684a.494.494,0,0,0-.244.917" transform="translate(-174.883 -227.71)" fill="#37474f"/>
    </g>
  </g>
</svg>
