<svg id="Illustration_PromoEarlyAccess" xmlns="http://www.w3.org/2000/svg" xmlns:xlink="http://www.w3.org/1999/xlink" width="135.848" height="115" viewBox="0 0 135.848 115">
  <defs>
    <clipPath id="clip-path">
      <rect id="Rectangle_398" data-name="Rectangle 398" width="135.848" height="115" fill="none"/>
    </clipPath>
  </defs>
  <g id="Group_887" data-name="Group 887" clip-path="url(#clip-path)">
    <path id="Path_603" data-name="Path 603" d="M213.407,317.729h5.048a.7.7,0,1,0,0-1.392h-5.048a.7.7,0,0,0,0,1.392" transform="translate(-142.234 -211.526)" fill="#37474f"/>
    <path id="Path_604" data-name="Path 604" d="M192.085,317.729h2.735a.7.7,0,0,0,0-1.392h-2.735a.7.7,0,0,0,0,1.392" transform="translate(-127.977 -211.526)" fill="#37474f"/>
    <path id="Path_605" data-name="Path 605" d="M176.955,317.729h1.219a.7.7,0,0,0,0-1.392h-1.219a.7.7,0,0,0,0,1.392" transform="translate(-117.86 -211.526)" fill="#37474f"/>
    <path id="Path_606" data-name="Path 606" d="M165.29,317.729h.64a.7.7,0,0,0,0-1.392h-.64a.7.7,0,1,0,0,1.392" transform="translate(-110.06 -211.526)" fill="#37474f"/>
    <path id="Path_607" data-name="Path 607" d="M155.176,317.729h.319a.7.7,0,0,0,0-1.392h-.319a.7.7,0,1,0,0,1.392" transform="translate(-103.297 -211.526)" fill="#37474f"/>
    <path id="Path_608" data-name="Path 608" d="M76.886,20.655l3.6,11.378a.7.7,0,1,0,1.327-.419l-3.6-11.379a.7.7,0,0,0-1.327.42" transform="translate(-51.39 -13.206)" fill="#37474f"/>
    <path id="Path_609" data-name="Path 609" d="M37.189,60.664a.7.7,0,0,0-.044-.983l-8.8-8.057a.7.7,0,0,0-.94,1.026l8.8,8.057a.7.7,0,0,0,.983-.043" transform="translate(-18.173 -34.398)" fill="#37474f"/>
    <path id="Path_610" data-name="Path 610" d="M12.5,106.318.846,103.743a.7.7,0,1,0-.3,1.359L12.2,107.677a.7.7,0,1,0,.3-1.359" transform="translate(0 -69.359)" fill="#37474f"/>
    <path id="Path_611" data-name="Path 611" d="M247.969,124.485a.792.792,0,0,0,.5-.58,1.784,1.784,0,0,0-.046-1.019s-.043-.143-.141-.414-.236-.669-.415-1.174c-.38-1.016-.936-2.469-1.776-4.236l-.324-.676-.363-.7c-.239-.477-.525-.974-.808-1.481a37.4,37.4,0,0,0-2.07-3.2,30.3,30.3,0,0,0-2.824-3.331,26.213,26.213,0,0,0-3.693-3.126,24.157,24.157,0,0,0-4.447-2.442,24.723,24.723,0,0,0-2.353-.848c-.785-.229-1.567-.428-2.331-.575a26.583,26.583,0,0,0-4.327-.482,30.337,30.337,0,0,0-3.634.118c-1.083.1-2.032.239-2.85.382s-1.508.288-2.062.414-.979.234-1.268.306l-.437.114a2.085,2.085,0,0,0-.212.068l-.272.075a5.56,5.56,0,0,0-1.606.722,4.223,4.223,0,0,0-1.1,1.046,3.471,3.471,0,0,0-.338.6,2.911,2.911,0,0,0-.189.619,2.464,2.464,0,0,0,.085,1.246,2.545,2.545,0,0,0,.719,1.082l-.1.033a4.1,4.1,0,0,0-2.275,1.758,3.357,3.357,0,0,0-.273.589,3.1,3.1,0,0,0-.14.6,2.776,2.776,0,0,0,.11,1.2,2.683,2.683,0,0,0,1.171,1.469,3.705,3.705,0,0,0,1.982.515,2.656,2.656,0,0,0,.042,1.545,3.311,3.311,0,0,0,3.393,1.984,2.748,2.748,0,0,0,.074,1.447,2.869,2.869,0,0,0,.641,1.063,3.389,3.389,0,0,0,1,.717,3.647,3.647,0,0,0,1.175.338,3.262,3.262,0,0,0,1.195-.078s.356-.1.858-.21,1.146-.243,1.735-.325a13.42,13.42,0,0,1,1.489-.127c.091,0,.177,0,.248,0l.183,0c.051,0,.091,0,.116,0l.039,0a.341.341,0,0,0,.1-.011s.046,0,.128.006l.147.013.093.006.1.013a6.2,6.2,0,0,1,1.029.2c.185.061.375.13.571.214a5.852,5.852,0,0,1,.606.332,5.372,5.372,0,0,1,.676.51c.12.1.241.222.367.336.123.135.254.254.381.407.13.136.257.306.39.46l.194.256.1.127.1.139.194.274.189.292c.129.187.247.4.37.6a22.256,22.256,0,0,1,1.256,2.5c.09.193.167.4.245.582s.153.36.216.536c.129.348.251.64.337.9l.209.593c.025.068.042.122.054.159l.018.055a.966.966,0,0,0,1.183.643Z" transform="translate(-138.138 -66.993)" fill="#fff"/>
    <path id="Path_612" data-name="Path 612" d="M227.539,127.522l-.021-.065c-.008-.027-.022-.067-.043-.125l-.209-.594-.005-.016c-.046-.14-.108-.3-.178-.482-.047-.123-.1-.251-.151-.4-.034-.1-.078-.2-.124-.31-.026-.062-.052-.125-.079-.19l-.076-.186c-.052-.127-.1-.248-.152-.358l-.011-.024a21.4,21.4,0,0,0-1.2-2.391c-.043-.071-.087-.144-.131-.217-.074-.124-.144-.242-.211-.339l-.125-.192-.34-.493-.269-.352c-.048-.057-.1-.115-.143-.172-.072-.088-.139-.171-.2-.231l-.041-.046c-.056-.067-.117-.13-.188-.2q-.07-.071-.137-.142c-.045-.041-.089-.083-.133-.125-.062-.059-.121-.115-.165-.15l-.022-.018a4.555,4.555,0,0,0-.562-.427l-.011-.007a4.833,4.833,0,0,0-.5-.276c-.145-.061-.3-.119-.469-.175a5.3,5.3,0,0,0-.865-.169l-.315-.029h0a1.162,1.162,0,0,1-.209.007l-.3-.006h-.091l-.132,0a12.333,12.333,0,0,0-1.381.118c-.5.069-1.1.183-1.663.312-.476.108-.82.2-.824.2l-.012,0a4.138,4.138,0,0,1-1.5.1,4.485,4.485,0,0,1-1.454-.417,4.231,4.231,0,0,1-1.256-.906,3.723,3.723,0,0,1-.834-1.386,3.6,3.6,0,0,1-.173-.9,4,4,0,0,1-3.291-2.522,3.42,3.42,0,0,1-.182-1.04,4.324,4.324,0,0,1-1.475-.561,3.539,3.539,0,0,1-1.543-1.945,3.628,3.628,0,0,1-.144-1.577,3.972,3.972,0,0,1,.182-.781,4.287,4.287,0,0,1,.344-.743,4.75,4.75,0,0,1,1.769-1.706,3.387,3.387,0,0,1-.189-.449,3.315,3.315,0,0,1-.116-1.681,3.856,3.856,0,0,1,.248-.812,4.348,4.348,0,0,1,.425-.748,5.087,5.087,0,0,1,1.324-1.268,6.4,6.4,0,0,1,1.764-.809l.091-.026.235-.065c.08-.029.159-.054.261-.081l.562-.146c.285-.072.676-.17,1.17-.281.706-.161,1.4-.3,2.106-.423,1.016-.177,1.971-.305,2.921-.391a31.046,31.046,0,0,1,3.738-.122,27.477,27.477,0,0,1,4.465.5c.736.141,1.525.336,2.411.595l.014,0a25.2,25.2,0,0,1,2.432.876,24.882,24.882,0,0,1,4.608,2.53,27.041,27.041,0,0,1,3.816,3.23,30.91,30.91,0,0,1,2.907,3.43,38.258,38.258,0,0,1,2.118,3.27l.165.295c.228.407.465.828.665,1.226l.362.7.337.7c.8,1.677,1.339,3.06,1.8,4.3l.42,1.187c.091.256.139.406.15.443a2.64,2.64,0,0,1,.055,1.517,1.648,1.648,0,0,1-1.084,1.176L229.8,128.733l-.019.006a1.845,1.845,0,0,1-2.242-1.217m18.342-5.612a.934.934,0,0,0-.036-.51l0-.013s-.041-.134-.13-.381l-.412-1.166c-.452-1.207-.976-2.546-1.742-4.157l-.319-.665-.36-.7c-.186-.37-.4-.756-.632-1.164l-.155-.277a36.333,36.333,0,0,0-2.016-3.112,29.184,29.184,0,0,0-2.742-3.236,25.321,25.321,0,0,0-3.57-3.023,23.156,23.156,0,0,0-4.29-2.355,23.511,23.511,0,0,0-2.264-.815c-.83-.243-1.564-.423-2.248-.555a25.8,25.8,0,0,0-4.184-.466,29.447,29.447,0,0,0-3.53.115c-.9.082-1.811.2-2.78.373-.682.119-1.342.251-2.02.406-.476.107-.854.2-1.13.272l-.543.141-.035.01c-.03.009-.059.018-.087.028l-.04.016-.385.107a4.663,4.663,0,0,0-1.28.585,3.351,3.351,0,0,0-.869.824,2.583,2.583,0,0,0-.25.437,2.061,2.061,0,0,0-.134.437,1.593,1.593,0,0,0,.054.809,1.679,1.679,0,0,0,.477.714l1.108,1-1.512.5a3.249,3.249,0,0,0-1.8,1.372,2.481,2.481,0,0,0-.2.431,2.184,2.184,0,0,0-.1.433,1.9,1.9,0,0,0,.076.826,1.82,1.82,0,0,0,.8.995,2.859,2.859,0,0,0,1.515.386l1.14-.013-.289,1.1a1.783,1.783,0,0,0,.024,1.044,2.451,2.451,0,0,0,2.53,1.395l1.128-.052-.237,1.1a1.868,1.868,0,0,0,.049.99,1.987,1.987,0,0,0,.445.737,2.511,2.511,0,0,0,.743.533,2.779,2.779,0,0,0,.9.259,2.4,2.4,0,0,0,.87-.056c.054-.014.4-.107.883-.216.6-.139,1.263-.263,1.809-.339a14.024,14.024,0,0,1,1.59-.135h.018l.1,0c.059,0,.113,0,.164,0l.2,0h.089l.031-.008h.118s.065,0,.18.008l.383.035a7.071,7.071,0,0,1,1.167.23l.03.009c.232.076.442.154.643.241l.03.013a6.686,6.686,0,0,1,.691.378,6.16,6.16,0,0,1,.774.58c.1.079.187.164.266.239.041.039.083.08.126.118l.065.064c.041.045.083.088.126.132.079.081.168.172.26.281s.184.21.268.313c.043.053.087.107.132.159l.322.419.251.356.264.4c.1.141.184.286.267.426.039.066.079.132.119.2l.01.015a23.237,23.237,0,0,1,1.3,2.585c.069.148.129.3.182.428q.036.088.071.173l0,.011.073.176c.052.125.106.254.152.384s.1.252.14.367c.075.193.145.376.2.554l.2.579c.03.082.052.147.066.194l.017.051a.1.1,0,0,0,.1.076l16.579-5.145,0-.013" transform="translate(-136.383 -65.237)" fill="#37474f"/>
    <path id="Path_613" data-name="Path 613" d="M221.829,114.075a.7.7,0,0,0-.208-1.365s-.07,0-.2.012l-.438.033c-.451.034-1.015.1-1.591.172-.738.1-1.465.226-2.165.367-.765.155-1.559.342-2.363.554-1.226.322-2.574.731-4.119,1.248l-1.739.591a.7.7,0,1,0,.448,1.318l1.736-.59c1.514-.507,2.833-.907,4.029-1.222.779-.205,1.547-.386,2.285-.535.671-.136,1.37-.254,2.076-.352.739-.1,1.263-.144,1.509-.163l.44-.033c.074-.006.116-.007.124-.008a.706.706,0,0,0,.173-.026" transform="translate(-139.444 -75.367)" fill="#37474f"/>
    <path id="Path_614" data-name="Path 614" d="M224.835,129.935a.7.7,0,0,0-.2-1.364s-.059,0-.17.01l-.349.026c-.362.028-.824.078-1.3.141-.637.089-1.249.193-1.824.308-.662.134-1.354.3-2.057.48-1.1.288-2.335.661-3.771,1.141l-1.687.573.447,1.317L215.6,132c1.4-.469,2.608-.834,3.68-1.114.678-.178,1.344-.334,1.98-.463.546-.11,1.131-.209,1.735-.294s1.026-.117,1.221-.132l.354-.027.091-.006a.675.675,0,0,0,.172-.027" transform="translate(-142.742 -85.972)" fill="#37474f"/>
    <path id="Path_615" data-name="Path 615" d="M233.134,143.964a.7.7,0,0,0-.225-1.363l-.092,0c-.058,0-.138.006-.239.015l-.339.025-.018,0-.46.047a25.155,25.155,0,0,0-2.645.458c-1.034.232-2.06.526-2.738.732-1.395.424-1.4.427-1.534.552a.7.7,0,0,0,.7,1.167c.083-.027.56-.183,1.234-.388.655-.2,1.645-.483,2.64-.706a23.594,23.594,0,0,1,2.486-.432l.783-.07c.083-.008.141-.01.184-.012l.1,0a.7.7,0,0,0,.161-.027" transform="translate(-150.198 -95.353)" fill="#37474f"/>
    <path id="Path_616" data-name="Path 616" d="M291.372,77.006a2.669,2.669,0,0,1,2.8,2.491l-.232,13.155-5.693-.106.232-13.157a2.662,2.662,0,0,1,2.89-2.383" transform="translate(-192.745 -51.491)" fill="#fff"/>
    <path id="Path_617" data-name="Path 617" d="M287.655,91.074a.883.883,0,0,0,.211.03.87.87,0,0,0,.885-.854l.232-13.156a1.4,1.4,0,0,1,.548-1.052,2.211,2.211,0,0,1,1.456-.477,1.814,1.814,0,0,1,1.95,1.606L292.7,90.324a.87.87,0,1,0,1.739.031l.232-13.155a3.538,3.538,0,0,0-3.656-3.376,3.956,3.956,0,0,0-2.6.874,3.115,3.115,0,0,0-1.18,2.363l-.232,13.157a.87.87,0,0,0,.643.855" transform="translate(-191.917 -49.364)" fill="#37474f"/>
    <path id="Path_618" data-name="Path 618" d="M273.53,133.884a.9.9,0,0,0,.168-.012.87.87,0,0,0,.715-1c-1.389-8.321,3.83-10.414,4.053-10.5a.87.87,0,0,0-.606-1.63,8.172,8.172,0,0,0-3.262,2.56c-1.334,1.7-2.746,4.794-1.9,9.856a.871.871,0,0,0,.833.727" transform="translate(-182.175 -80.7)" fill="#37474f"/>
    <path id="Path_619" data-name="Path 619" d="M292.252,146.609l.137.177.167.218.219.291c.164.219.37.493.595.8l.367.507.4.571c.568.8,1.217,1.779,1.942,2.9.709,1.127,1.5,2.4,2.3,3.81.41.7.809,1.442,1.228,2.208.213.381.41.777.62,1.175s.422.8.627,1.216l.621,1.26c.1.213.211.426.313.643l.305.655.618,1.333.6,1.372c.411.919.786,1.872,1.177,2.831.2.478.377.969.564,1.458l.555,1.478.522,1.5c.172.5.356,1.006.512,1.518l.485,1.535c.08.256.163.511.24.769l.221.776a98.332,98.332,0,0,1,2.737,12.358q.113.751.225,1.489c.018.123.036.245.054.368s.029.245.044.368q.043.367.087.73.085.726.168,1.436l.081.706q.03.352.06.7.113,1.389.22,2.7c.041.873.081,1.717.118,2.527q.014.3.027.6c.009.2.019.394.019.588q.006.582.012,1.136c.006.739.013,1.44.018,2.1-.027,1.317-.065,2.465-.092,3.41,0,.118-.007.234-.011.345s-.014.22-.021.325q-.021.314-.038.59c-.024.366-.045.678-.062.93-.034.505-.052.774-.052.774L288.03,210.07l.039-.588.048-.707c.009-.139.02-.289.031-.449.005-.079.011-.161.017-.246s0-.172.007-.261c.02-.717.043-1.587.071-2.586-.005-.5-.011-1.031-.017-1.591q0-.42-.007-.861c0-.147-.007-.295-.014-.446s-.015-.3-.022-.456q-.042-.92-.087-1.915c-.055-.66-.111-1.343-.169-2.045-.014-.175-.028-.352-.043-.529s-.043-.356-.064-.536l-.129-1.089-.064-.554c-.011-.093-.022-.186-.032-.279s-.028-.186-.042-.279q-.086-.56-.173-1.131a75.077,75.077,0,0,0-2.087-9.426l-.168-.594c-.059-.2-.124-.393-.185-.59l-.371-1.177c-.117-.394-.262-.778-.394-1.166l-.4-1.157-.429-1.136c-.144-.376-.277-.754-.432-1.122-.3-.737-.588-1.472-.907-2.178l-.461-1.056-.476-1.024-.233-.5c-.078-.167-.162-.33-.242-.494l-.476-.967c-.157-.318-.323-.624-.48-.931s-.31-.609-.473-.9c-.32-.582-.622-1.15-.933-1.678-.6-1.072-1.2-2.017-1.719-2.852s-1-1.529-1.393-2.082l-.277-.395-.244-.335c-.152-.213-.278-.377-.38-.515l-.135-.18-.094-.121-.076-.1Z" transform="translate(-183.161 -98.034)" fill="#b0bec5"/>
    <path id="Path_620" data-name="Path 620" d="M308.685,210.538a1.236,1.236,0,0,0,1.232-1.153l.173-2.623c0-.014,0-.027,0-.04l.032-1.066c.024-.8.05-1.7.071-2.7,0-.012,0-.024,0-.036l-.03-3.23c0-.2-.008-.389-.017-.573l-.148-3.2c0-.014,0-.029,0-.042l-.28-3.4c0-.012,0-.024,0-.037l-.381-3.245c0-.011,0-.022,0-.033l-.281-1.861a100.264,100.264,0,0,0-2.772-12.518l-.22-.77,0-.016q-.08-.265-.165-.529l-.563-1.785c-.116-.381-.244-.75-.369-1.107q-.078-.222-.153-.443l-.525-1.512-.011-.029-.556-1.479c-.052-.135-.1-.264-.149-.394-.136-.361-.276-.735-.431-1.106-.082-.2-.166-.409-.251-.617-.3-.739-.609-1.5-.939-2.242l-.6-1.362-.011-.025-.924-1.99c-.073-.153-.144-.3-.217-.446q-.054-.108-.106-.216l-.624-1.265c-.143-.289-.288-.568-.429-.837-.07-.134-.139-.266-.207-.4l-.006-.01-.2-.388c-.137-.266-.28-.541-.431-.812l-.223-.409c-.345-.631-.67-1.227-1.012-1.813-.79-1.395-1.584-2.675-2.324-3.851l-.007-.012c-.777-1.2-1.421-2.167-1.971-2.946l-.4-.569-.01-.014-.367-.506c-.2-.277-.387-.529-.539-.731l-.287-.383-.01-.013-.3-.4a1.237,1.237,0,0,0-1.737-.221l-18.335,14.236a1.236,1.236,0,0,0-.221,1.731l.366.483c.083.11.18.239.291.4l.514.722c.345.487.777,1.133,1.362,2.036.514.821,1.1,1.752,1.685,2.8l.011.019c.22.374.437.771.666,1.192.083.15.165.3.25.456l.007.011c.093.165.185.343.282.532q.084.165.171.33c.059.114.119.23.18.346.1.192.2.374.288.56l.475.966.09.183c.048.1.1.192.141.29l.7,1.512.455,1.042s0,.01.006.015c.219.485.421.983.634,1.511.085.209.17.419.256.63a.075.075,0,0,1,.005.012c.1.234.19.479.287.738.043.114.086.228.129.343l.421,1.116.394,1.14c.041.122.086.249.131.378.09.256.175.5.246.737l.006.019.371,1.178c.023.072.046.145.07.219.036.115.073.229.108.345l.166.585a74.4,74.4,0,0,1,2.055,9.277l.189,1.235c.008.046.015.093.021.139l.286,2.429.208,2.531.111,2.408c.006.115.011.224.01.315v.023l.023,2.432-.1,3.076-.114,1.69a1.237,1.237,0,1,0,2.468.162l.134-1.985c0-.018,0-.035,0-.053l.078-2.846v-.047l-.023-2.438c0-.163-.006-.316-.013-.454l-.025-.508-.087-1.911c0-.015,0-.03,0-.045l-.212-2.573c0-.016,0-.031-.005-.047l-.288-2.453c0-.006,0-.013,0-.019-.009-.07-.02-.14-.031-.21l-.187-1.226a76.85,76.85,0,0,0-2.122-9.584l-.166-.586c0-.007,0-.013-.006-.019-.04-.133-.082-.264-.124-.395-.022-.07-.044-.139-.066-.209l-.369-1.171c-.088-.292-.186-.571-.28-.841-.042-.12-.084-.239-.125-.359l-.4-1.163-.012-.033-.429-1.136c-.043-.113-.083-.221-.124-.33-.1-.27-.205-.55-.324-.832q-.125-.306-.249-.61c-.212-.525-.431-1.067-.669-1.594l-.457-1.048-.013-.027-.708-1.527c-.057-.121-.113-.234-.169-.346l-.084-.17-.477-.971c-.106-.214-.213-.418-.317-.616l-.173-.333-.007-.014c-.055-.1-.108-.208-.162-.311-.1-.2-.208-.405-.324-.61l-.243-.442c-.237-.435-.462-.846-.7-1.251-.616-1.092-1.214-2.047-1.742-2.89l-.01-.016c-.607-.937-1.058-1.612-1.421-2.125l-.273-.39-.012-.017-.211-.292,16.388-12.725q.161.216.343.468l.482.671.279.4c.53.752,1.154,1.685,1.91,2.856.675,1.073,1.462,2.336,2.265,3.754l.009.015c.325.557.644,1.14.981,1.758l.23.42c.138.246.264.492.4.753.068.132.137.266.208.4l.211.406c.135.258.274.524.4.787l.62,1.257.109.223c.066.133.131.266.194.4l.915,1.97.594,1.359c.315.707.6,1.417.908,2.17l.257.633c.142.339.268.675.4,1.032.05.134.1.266.151.4l.548,1.458.517,1.49c.05.146.1.3.156.453.123.352.238.684.34,1.02,0,0,0,.009,0,.013l.566,1.792c.051.163.1.324.151.487l.219.768a97.792,97.792,0,0,1,2.7,12.206l.276,1.832.383,3.285.1,1.149.173,2.118.147,3.173c.008.164.015.319.015.462v.016l.029,3.215c-.02.986-.047,1.875-.07,2.661l-.031,1.042-.171,2.6a1.236,1.236,0,0,0,1.151,1.316c.028,0,.056,0,.084,0" transform="translate(-180.666 -95.538)" fill="#b0bec5"/>
    <path id="Path_621" data-name="Path 621" d="M319.984,230.549h.006a.549.549,0,0,0,.544-.555,117.614,117.614,0,0,0-2-18.346,88.772,88.772,0,0,0-4.479-16.015,46.636,46.636,0,0,0-8.607-14.481.55.55,0,1,0-.811.742,45.542,45.542,0,0,1,8.391,14.132,87.644,87.644,0,0,1,4.422,15.806A116.514,116.514,0,0,1,319.435,230a.549.549,0,0,0,.549.544" transform="translate(-203.609 -121.013)" fill="#37474f"/>
    <path id="Path_622" data-name="Path 622" d="M337.911,282.687a.55.55,0,0,0,.227-1.05,25.808,25.808,0,0,0-10.822-1.809,42.187,42.187,0,0,0-5.808.451.55.55,0,0,0,.179,1.084c.1-.016,9.742-1.559,16,1.275a.544.544,0,0,0,.226.049" transform="translate(-214.677 -187.112)" fill="#37474f"/>
    <path id="Path_623" data-name="Path 623" d="M320.182,266.9a.547.547,0,0,0,.3-.087c.074-.048,7.534-4.773,14.576-4.3a.55.55,0,1,0,.073-1.1c-7.413-.5-14.927,4.271-15.243,4.474a.55.55,0,0,0,.3,1.012" transform="translate(-213.729 -174.775)" fill="#37474f"/>
    <path id="Rectangle_397" data-name="Rectangle 397" d="M14.275,0H31.634A14.275,14.275,0,0,1,45.909,14.275V74.229A14.276,14.276,0,0,1,31.633,88.505H14.276A14.276,14.276,0,0,1,0,74.229V14.275A14.275,14.275,0,0,1,14.275,0Z" transform="translate(40.386 10.435)" fill="#fff"/>
    <path id="Path_624" data-name="Path 624" d="M160.729,118.818H124.281a5.9,5.9,0,0,1-5.89-5.889V33.883a5.9,5.9,0,0,1,5.89-5.889h36.449a5.9,5.9,0,0,1,5.89,5.889v79.046a5.9,5.9,0,0,1-5.89,5.889M124.281,30.313a3.574,3.574,0,0,0-3.57,3.57v79.046a3.575,3.575,0,0,0,3.57,3.57h36.449a3.575,3.575,0,0,0,3.57-3.57V33.883a3.574,3.574,0,0,0-3.57-3.57Z" transform="translate(-79.165 -18.719)" fill="#37474f"/>
    <path id="Path_625" data-name="Path 625" d="M108.356,128.3l-7.666-14.808a27,27,0,1,0-7.957,6.719Z" transform="translate(-35.199 -46.577)" fill="#b0bec5"/>
    <path id="Path_626" data-name="Path 626" d="M172.468,48.232h-34.9a.464.464,0,1,0,0,.928h34.9a.464.464,0,0,0,0-.928" transform="translate(-91.68 -32.251)" fill="#37474f"/>
    <path id="Path_627" data-name="Path 627" d="M172.468,279.367h-34.9a.464.464,0,0,0,0,.928h34.9a.464.464,0,0,0,0-.928" transform="translate(-91.68 -186.805)" fill="#37474f"/>
    <path id="Path_628" data-name="Path 628" d="M156.01,7.767a3.936,3.936,0,0,0,2.7,1.6,3.278,3.278,0,0,0,2.694-1.41c1.006-1.222,1.64-1.458,1.995-1.441.523.025.995.661,1.4,1.256a3.937,3.937,0,0,0,2.7,1.6,3.278,3.278,0,0,0,2.694-1.41,2.413,2.413,0,0,1,1.8-1.089,2.442,2.442,0,0,1,1.615.931.7.7,0,0,0,1.116-.832,3.832,3.832,0,0,0-2.688-1.49,3.688,3.688,0,0,0-2.913,1.6,2.008,2.008,0,0,1-1.529.9,2.521,2.521,0,0,1-1.64-.992,3.454,3.454,0,0,0-2.48-1.86c-.993-.047-2.018.59-3.135,1.948a2.008,2.008,0,0,1-1.529.9,2.52,2.52,0,0,1-1.64-.992,3.456,3.456,0,0,0-2.48-1.86c-.993-.047-2.018.591-3.135,1.948a2.007,2.007,0,0,1-1.529.9,2.52,2.52,0,0,1-1.64-.992,3.455,3.455,0,0,0-2.48-1.86c-.992-.047-2.018.591-3.135,1.948a.7.7,0,1,0,1.074.884c1.005-1.222,1.64-1.458,1.995-1.441.523.024,1,.661,1.4,1.255a3.934,3.934,0,0,0,2.7,1.6,3.279,3.279,0,0,0,2.7-1.41c1-1.222,1.639-1.458,1.994-1.441.523.024,1,.661,1.4,1.256" transform="translate(-95.354 -3.423)" fill="#37474f"/>
    <path id="Path_629" data-name="Path 629" d="M66.378,254.538H61.41V249.57a.7.7,0,1,0-1.392,0v4.968H55.05a.7.7,0,1,0,0,1.392h4.968V260.9a.7.7,0,0,0,1.392,0V255.93h4.968a.7.7,0,0,0,0-1.392" transform="translate(-36.345 -166.415)" fill="#37474f"/>
    <path id="Path_630" data-name="Path 630" d="M366.93,180.035a.464.464,0,0,1-.464-.454,74.631,74.631,0,0,0-2.729-15.829,92.529,92.529,0,0,0-5.991-15.891,90.247,90.247,0,0,0-11.365-17.754.464.464,0,0,1,.717-.589,91.166,91.166,0,0,1,11.491,17.956,93.333,93.333,0,0,1,6.05,16.063,73.806,73.806,0,0,1,2.753,16.023.464.464,0,0,1-.454.474Z" transform="translate(-231.547 -86.492)" fill="#37474f"/>
    <path id="Path_631" data-name="Path 631" d="M163.616,106.726a.464.464,0,0,1-.384-.723,29.861,29.861,0,0,0-22.377-46.425.464.464,0,0,1,.074-.925A30.79,30.79,0,0,1,164,106.521a.464.464,0,0,1-.385.2" transform="translate(-93.9 -39.219)" fill="#37474f"/>
    <path id="Path_632" data-name="Path 632" d="M63.057,179.671a.464.464,0,0,1-.142-.023,30.8,30.8,0,0,1-21.353-29.313.464.464,0,1,1,.928,0,29.87,29.87,0,0,0,20.71,28.43.464.464,0,0,1-.142.906" transform="translate(-27.791 -100.215)" fill="#37474f"/>
    <path id="Path_633" data-name="Path 633" d="M99.556,133.922a1.368,1.368,0,0,1-1.141-2.12L119.561,99.65a1.368,1.368,0,1,1,2.286,1.5L100.7,133.306a1.367,1.367,0,0,1-1.144.616" transform="translate(-65.656 -66.221)" fill="#37474f"/>
    <path id="Path_634" data-name="Path 634" d="M90.414,125.043a7.028,7.028,0,0,1-5.865-10.89,7.041,7.041,0,0,1,5.877-3.167,7.028,7.028,0,0,1-.012,14.057m.012-11.321a4.348,4.348,0,0,0-.873.089,4.292,4.292,0,0,0,.861,8.5,4.292,4.292,0,0,0,.012-8.585" transform="translate(-55.761 -74.213)" fill="#37474f"/>
    <path id="Path_635" data-name="Path 635" d="M149.664,164.012a7.039,7.039,0,1,1,1.427-.146,7.052,7.052,0,0,1-1.427.146m.012-11.321a4.292,4.292,0,1,0,.862,8.5,4.292,4.292,0,0,0-.862-8.5" transform="translate(-95.38 -100.271)" fill="#37474f"/>
    <path id="Path_636" data-name="Path 636" d="M275.624,0a3.348,3.348,0,1,0,3.348,3.348A3.351,3.351,0,0,0,275.624,0m0,5.3a1.956,1.956,0,1,1,1.956-1.956A1.958,1.958,0,0,1,275.624,5.3" transform="translate(-182.065 0)" fill="#b0bec5"/>
  </g>
</svg>
