<svg id="Illustration_FreeReturns" xmlns="http://www.w3.org/2000/svg" xmlns:xlink="http://www.w3.org/1999/xlink" width="145.879" height="110" viewBox="0 0 145.879 110">
  <defs>
    <clipPath id="clip-path">
      <rect id="Rectangle_390" data-name="Rectangle 390" width="145.879" height="110" fill="none"/>
    </clipPath>
  </defs>
  <g id="Group_881" data-name="Group 881" clip-path="url(#clip-path)">
    <path id="Path_498" data-name="Path 498" d="M21.194,49.587a29.762,29.762,0,1,0,38.888-16.1,29.762,29.762,0,0,0-38.888,16.1" transform="translate(-13.033 -21.5)" fill="#b0bec5"/>
    <path id="Path_499" data-name="Path 499" d="M295.905,62.105l-67.177-4.341A2.489,2.489,0,0,1,226.4,55.12l3.281-50.775a2.489,2.489,0,0,1,2.644-2.323l67.177,4.34a2.489,2.489,0,0,1,2.324,2.644L298.55,59.782a2.489,2.489,0,0,1-2.644,2.323" transform="translate(-155.957 -1.389)" fill="#b0bec5"/>
    <path id="Path_500" data-name="Path 500" d="M316.039,5.6l-58.1-3.754A.926.926,0,0,1,258.061,0l58.1,3.754a.926.926,0,0,1-.119,1.848" transform="translate(-177.089 0)" fill="#37474f"/>
    <path id="Path_501" data-name="Path 501" d="M330.6,8.3,310.741,7.014a3,3,0,0,0-3.185,2.8l-2.24,34.663a3,3,0,0,0,2.8,3.185l19.862,1.283a3,3,0,0,0,3.185-2.8l2.24-34.663A3,3,0,0,0,330.6,8.3" transform="translate(-210.315 -4.827)" fill="#37474f"/>
    <path id="Path_502" data-name="Path 502" d="M341.279,54.2l-13.389-.865a.989.989,0,0,1,.128-1.973l13.389.865a.989.989,0,0,1-.128,1.973" transform="translate(-225.233 -35.377)" fill="#fff"/>
    <path id="Path_503" data-name="Path 503" d="M340.084,72.68,326.7,71.815a.989.989,0,1,1,.128-1.973l13.389.865a.988.988,0,0,1-.128,1.973" transform="translate(-224.41 -48.11)" fill="#fff"/>
    <path id="Path_504" data-name="Path 504" d="M338.89,91.166,325.5,90.3a.989.989,0,1,1,.128-1.973l13.389.865a.989.989,0,0,1-.128,1.973" transform="translate(-223.587 -60.844)" fill="#fff"/>
    <path id="Path_505" data-name="Path 505" d="M163.023,183.271l17.27,8.786-9.031-17.144Z" transform="translate(-112.299 -120.491)" fill="#b0bec5"/>
    <path id="Path_506" data-name="Path 506" d="M150.53,284.926h-4.74a.653.653,0,1,0,0,1.307h4.74a.653.653,0,1,0,0-1.307" transform="translate(-99.978 -196.274)" fill="#37474f"/>
    <path id="Path_507" data-name="Path 507" d="M127.036,284.926h-2.568a.653.653,0,1,0,0,1.307h2.568a.653.653,0,1,0,0-1.307" transform="translate(-85.29 -196.274)" fill="#37474f"/>
    <path id="Path_508" data-name="Path 508" d="M110.483,284.926h-1.144a.653.653,0,1,0,0,1.307h1.144a.653.653,0,1,0,0-1.307" transform="translate(-74.869 -196.274)" fill="#37474f"/>
    <path id="Path_509" data-name="Path 509" d="M98.275,284.926h-.6a.653.653,0,1,0,0,1.307h.6a.653.653,0,1,0,0-1.307" transform="translate(-66.833 -196.274)" fill="#37474f"/>
    <path id="Path_510" data-name="Path 510" d="M87.859,284.926h-.3a.653.653,0,0,0,0,1.307h.3a.653.653,0,1,0,0-1.307" transform="translate(-59.866 -196.274)" fill="#37474f"/>
    <path id="Path_511" data-name="Path 511" d="M355.3,177.277l-8.844,10.3L342.4,184.1l8.845-10.306a2.678,2.678,0,0,1,4.055,3.485" transform="translate(-235.865 -119.138)" fill="#fff"/>
    <path id="Path_512" data-name="Path 512" d="M349.306,170.99a3.254,3.254,0,0,0-.489.463l-8.845,10.306a.817.817,0,1,0,1.24,1.064l8.845-10.306a1.617,1.617,0,0,1,1.17-.555,1.927,1.927,0,0,1,1.345.477,1.787,1.787,0,0,1,.3,2.5l-8.844,10.3a.817.817,0,1,0,1.239,1.064l8.844-10.3a3.419,3.419,0,0,0-.477-4.8,3.557,3.557,0,0,0-2.483-.869,3.266,3.266,0,0,0-1.846.661" transform="translate(-234.057 -117.33)" fill="#37474f"/>
    <path id="Path_513" data-name="Path 513" d="M305.008,167.3a.75.75,0,0,0,.693.168,1.509,1.509,0,0,0,.8-.473l.264-.295.316-.355c.124-.141.261-.308.417-.493a31.958,31.958,0,0,0,2.391-3.243,32.635,32.635,0,0,0,2.664-5.052c.4-.961.777-1.967,1.1-3s.6-2.089.82-3.146a37.6,37.6,0,0,0,.773-6.178,42.513,42.513,0,0,0-.1-5.249c-.125-1.51-.3-2.746-.436-3.606-.07-.43-.128-.766-.171-.995s-.064-.351-.064-.351a1.531,1.531,0,0,0-.044-.171l-.043-.222a3.8,3.8,0,0,0-1.4-2.316,2.584,2.584,0,0,0-2.26-.47,2.624,2.624,0,0,0-1.059.592l-.023-.085a3.335,3.335,0,0,0-1.531-2.034,2.62,2.62,0,0,0-2.241-.208,2.94,2.94,0,0,0-1.372,1.072,3.273,3.273,0,0,0-.589,1.606,2.807,2.807,0,0,0-1.426.077,3.169,3.169,0,0,0-1.5,1.029,2.906,2.906,0,0,0-.652,1.559,3.1,3.1,0,0,0-1.339.064,3.411,3.411,0,0,0-1.824,1.2,2.273,2.273,0,0,0-.492,1.792s.053.282.122.7.148.983.206,1.54.1,1.109.119,1.52c.008.2.014.375.019.494s0,.186,0,.186a.553.553,0,0,0,.017.126s0,.055,0,.159,0,.255,0,.447c-.006.382-.02.927-.072,1.561a19.638,19.638,0,0,1-.285,2.1,17.053,17.053,0,0,1-.6,2.235,15.409,15.409,0,0,1-.876,2.042,15.028,15.028,0,0,1-1,1.636c-.325.461-.63.828-.845,1.084-.105.13-.2.225-.259.294l-.092.1c-.219.237-.13.7.212,1.042Z" transform="translate(-201.84 -89.519)" fill="#fff"/>
    <path id="Path_514" data-name="Path 514" d="M296.831,132.754a4.1,4.1,0,0,1,.874-.136,3.887,3.887,0,0,1,.665-1.194,4.058,4.058,0,0,1,1.918-1.311,3.745,3.745,0,0,1,.987-.172,4.156,4.156,0,0,1,.582-1.184,3.821,3.821,0,0,1,1.78-1.385,3.513,3.513,0,0,1,2.976.269,4.119,4.119,0,0,1,1.543,1.585,3.386,3.386,0,0,1,3.419.47,4.694,4.694,0,0,1,1.736,2.847l.035.179c.021.072.039.146.054.223l.064.349c.044.235.1.577.176,1.017.191,1.186.341,2.422.445,3.676a42.937,42.937,0,0,1,.1,5.356,38.287,38.287,0,0,1-.791,6.321c-.231,1.086-.513,2.171-.839,3.222-.3.986-.683,2.022-1.125,3.078a33.219,33.219,0,0,1-2.736,5.188,32.726,32.726,0,0,1-2.457,3.333l-.132.157c-.107.128-.206.246-.3.353l-.582.651a2.391,2.391,0,0,1-1.275.747,1.61,1.61,0,0,1-1.476-.4l-11.673-11.5a1.641,1.641,0,0,1-.244-2.243l.083-.093c.026-.03.057-.064.092-.1s.1-.105.147-.167l.009-.01c.234-.279.507-.612.8-1.026a14.1,14.1,0,0,0,.941-1.538,14.449,14.449,0,0,0,.825-1.925,16.036,16.036,0,0,0,.563-2.114,18.624,18.624,0,0,0,.272-2.011c.049-.6.063-1.114.069-1.5l0-.5a1.518,1.518,0,0,1-.019-.209l-.021-.651c-.023-.464-.065-1-.115-1.472-.067-.632-.154-1.206-.2-1.492-.065-.4-.116-.669-.119-.686a3.14,3.14,0,0,1,.657-2.479,4.12,4.12,0,0,1,.774-.771,4.33,4.33,0,0,1,1.518-.744m-.736,8.287,0,.742c-.007.41-.021.965-.075,1.618a20.328,20.328,0,0,1-.3,2.2,17.779,17.779,0,0,1-.627,2.351,16.3,16.3,0,0,1-.928,2.161,15.927,15.927,0,0,1-1.059,1.732c-.357.506-.7.916-.886,1.138-.082.1-.156.182-.211.241l0,.005.017.018,11.6,11.43a.669.669,0,0,0,.3-.2l.575-.643c.082-.094.171-.2.269-.317l.134-.16a30.969,30.969,0,0,0,2.327-3.155,31.562,31.562,0,0,0,2.593-4.917c.421-1.006.78-1.988,1.068-2.922.311-1,.58-2.034.8-3.07a36.59,36.59,0,0,0,.755-6.034,41.346,41.346,0,0,0-.1-5.138c-.1-1.206-.244-2.4-.428-3.536-.069-.424-.126-.752-.168-.978l-.064-.344a.513.513,0,0,0-.018-.071l-.015-.047-.053-.271a2.934,2.934,0,0,0-1.068-1.787,1.713,1.713,0,0,0-1.5-.329,1.765,1.765,0,0,0-.709.4l-1.053.953-.395-1.455a2.475,2.475,0,0,0-1.124-1.507,1.755,1.755,0,0,0-1.506-.147,2.08,2.08,0,0,0-.963.758,2.4,2.4,0,0,0-.432,1.178l-.084.98-.963-.2a1.947,1.947,0,0,0-.984.054,2.312,2.312,0,0,0-1.09.747,2.03,2.03,0,0,0-.462,1.089l-.085.946-.935-.166a2.209,2.209,0,0,0-.961.048,2.6,2.6,0,0,0-.909.446,2.392,2.392,0,0,0-.448.444,1.433,1.433,0,0,0-.329,1.1c.006.03.059.311.127.728.049.3.142.915.212,1.586.074.687.108,1.279.123,1.579l.019.493,0,.164Z" transform="translate(-199.918 -87.595)" fill="#37474f"/>
    <path id="Path_515" data-name="Path 515" d="M341.81,131.578a.653.653,0,0,0-.228.71l.127.417c.072.241.184.62.308,1.081.276,1.007.554,2.219.763,3.329.207,1.094.387,2.329.5,3.39.044.433.081.834.1,1.129l.032.439a.653.653,0,0,0,1.3-.1l-.031-.437c-.022-.307-.059-.723-.105-1.17-.112-1.095-.3-2.37-.512-3.5-.215-1.143-.5-2.393-.786-3.429-.128-.473-.242-.864-.318-1.116l-.129-.421a.654.654,0,0,0-1.021-.329" transform="translate(-235.282 -90.546)" fill="#37474f"/>
    <path id="Path_516" data-name="Path 516" d="M327.041,136.385a.654.654,0,0,0-.228.709l.12.4c.067.23.16.544.26.92.245.9.489,1.966.671,2.937s.339,2.044.434,2.975c.041.4.072.742.088.983l.028.385a.654.654,0,1,0,1.3-.1l-.028-.38c-.017-.252-.049-.607-.092-1.024-.1-.966-.263-2.09-.45-3.083s-.44-2.11-.693-3.036c-.1-.388-.2-.711-.268-.947l-.124-.408a.654.654,0,0,0-1.022-.33" transform="translate(-225.108 -93.858)" fill="#37474f"/>
    <path id="Path_517" data-name="Path 517" d="M315.165,145.751a.654.654,0,0,0-.236.684s.1.384.227.947c.151.666.3,1.433.405,2.1s.206,1.45.265,2.106c.053.567.073.946.073.95a.653.653,0,1,0,1.305-.068c0-.016-.022-.409-.077-1-.063-.684-.163-1.483-.276-2.193s-.265-1.492-.421-2.185c-.133-.586-.233-.971-.237-.987a.654.654,0,0,0-1.029-.356" transform="translate(-216.927 -100.309)" fill="#37474f"/>
    <path id="Path_518" data-name="Path 518" d="M254.022,207.086l-.075.118-.206.33-.322.522c-.129.207-.268.438-.421.7l-.511.858-.578,1c-.419.717-.854,1.524-1.342,2.405A142.1,142.1,0,0,0,244.3,226.2c-1.016,2.448-1.958,4.928-2.779,7.281-.432,1.167-.784,2.324-1.141,3.41l-.512,1.586c-.156.516-.3,1.019-.437,1.5l-.756,2.627c-.209.788-.376,1.481-.521,2.049l-.449,1.787,21.207,5.046.372-1.476c.12-.47.256-1.041.429-1.695l.632-2.186c.116-.4.232-.819.362-1.25s.283-.873.431-1.329c.3-.911.59-1.879.958-2.863.691-1.979,1.486-4.077,2.348-6.15a120.318,120.318,0,0,1,5.281-11.124c.4-.724.764-1.4,1.1-1.97l.464-.807.4-.666c.119-.2.226-.382.318-.526l.233-.377c.063-.1.111-.182.14-.225l.045-.072Z" transform="translate(-163.747 -142.653)" fill="#b0bec5"/>
    <path id="Path_519" data-name="Path 519" d="M256.232,250.076a1.184,1.184,0,0,1-.172-.03,1.161,1.161,0,0,1-.842-1.409l.372-1.476c.044-.173.09-.356.138-.552.085-.344.182-.733.293-1.155,0-.009,0-.018.007-.026l.632-2.187c.043-.147.085-.294.128-.444.076-.266.154-.539.238-.817l.007-.024.432-1.329c.086-.263.171-.525.256-.791.218-.68.444-1.384.714-2.109.731-2.093,1.528-4.179,2.368-6.2a121.045,121.045,0,0,1,5.334-11.234l.354-.643c.266-.484.518-.942.759-1.354l.462-.8.009-.016.4-.665.143-.24-16.443-10.446c-.121.2-.25.412-.394.653l-.507.851-.573,1c-.31.53-.632,1.116-.972,1.736-.117.213-.236.43-.359.652a141.328,141.328,0,0,0-6.206,13.066c-.979,2.358-1.906,4.787-2.757,7.221l-.007.02c-.311.84-.583,1.685-.846,2.5q-.141.44-.281.867l-.507,1.57c-.1.334-.195.662-.287.982q-.072.253-.144.5l-.752,2.611c-.137.518-.258,1-.364,1.426-.053.213-.1.414-.151.6l-.448,1.783a1.161,1.161,0,1,1-2.252-.565l.448-1.788c.048-.189.1-.386.15-.6.109-.436.233-.93.375-1.469l.007-.024.757-2.627.143-.493c.1-.333.194-.673.3-1.021l.007-.021.512-1.586c.094-.286.186-.571.279-.86.269-.838.548-1.7.875-2.587.864-2.473,1.806-4.94,2.8-7.333a143.757,143.757,0,0,1,6.316-13.295l.36-.653c.348-.634.678-1.232,1-1.783l.574-1,.009-.015.512-.858c.156-.263.3-.5.433-.717l.61-.98a1.162,1.162,0,0,1,1.6-.356l18.4,11.689a1.161,1.161,0,0,1,.356,1.605l-.045.071-.007.011c-.025.038-.067.107-.122.2l-.234.379c-.087.138-.186.3-.307.509l-.394.66-.46.8-.006.01c-.226.384-.47.829-.729,1.3-.115.209-.233.424-.355.644a118.837,118.837,0,0,0-5.223,11c-.825,1.988-1.607,4.036-2.325,6.09l-.009.024c-.253.677-.471,1.358-.682,2.016-.087.272-.173.541-.26.8l-.426,1.311c-.079.264-.153.522-.225.775q-.066.23-.13.453l-.627,2.171c-.106.4-.2.778-.282,1.11-.05.2-.1.388-.141.563l-.371,1.472a1.161,1.161,0,0,1-1.237.872" transform="translate(-161.176 -140.082)" fill="#b0bec5"/>
    <path id="Path_520" data-name="Path 520" d="M271.936,268.976l-.052-.008a.515.515,0,0,1-.4-.607,62.539,62.539,0,0,1,2.418-8.016,142.627,142.627,0,0,1,9.981-21.433.516.516,0,1,1,.9.506,141.6,141.6,0,0,0-9.909,21.276,62.884,62.884,0,0,0-2.377,7.869.516.516,0,0,1-.555.413" transform="translate(-187.004 -164.395)" fill="#37474f"/>
    <path id="Path_521" data-name="Path 521" d="M257.366,299.791a.516.516,0,0,1-.116-1,24.233,24.233,0,0,1,10.279-.7,39.63,39.63,0,0,1,5.387.952.516.516,0,0,1-.266,1c-.089-.024-8.963-2.347-15.068-.268a.514.514,0,0,1-.216.026" transform="translate(-176.968 -205.186)" fill="#37474f"/>
    <path id="Path_522" data-name="Path 522" d="M278.827,284.239a.515.515,0,0,1-.269-.109c-.065-.051-6.606-5.148-13.23-5.351a.516.516,0,0,1,.032-1.032c6.974.213,13.561,5.354,13.838,5.573a.516.516,0,0,1-.37.919" transform="translate(-182.428 -191.329)" fill="#37474f"/>
    <path id="Path_523" data-name="Path 523" d="M392.1,225.327a3.144,3.144,0,1,0,3.144,3.144,3.148,3.148,0,0,0-3.144-3.144m0,4.981a1.837,1.837,0,1,1,1.837-1.837,1.839,1.839,0,0,1-1.837,1.837" transform="translate(-267.936 -155.218)" fill="#b0bec5"/>
    <path id="Path_524" data-name="Path 524" d="M170.739,251.374l-4.278-3a.654.654,0,0,0-.75,0l-3.9,2.736-3.9-2.736a.654.654,0,0,0-.75,0l-3.9,2.736-3.9-2.736a.654.654,0,0,0-.75,0l-3.9,2.736-3.9-2.736a.654.654,0,0,0-.75,0l-3.9,2.736-3.9-2.736a.654.654,0,0,0-.75,0l-4.278,3a.653.653,0,1,0,.75,1.07l3.9-2.736,3.9,2.736a.653.653,0,0,0,.75,0l3.9-2.736,3.9,2.736a.654.654,0,0,0,.75,0l3.9-2.736,3.9,2.736a.653.653,0,0,0,.75,0l3.9-2.736,3.9,2.736a.653.653,0,0,0,.75,0l3.9-2.736,3.9,2.736a.653.653,0,1,0,.75-1.07" transform="translate(-87.44 -171.013)" fill="#b0bec5"/>
    <path id="Path_525" data-name="Path 525" d="M181.93,294.159h-4.666v-4.666a.653.653,0,1,0-1.307,0v4.666h-4.665a.653.653,0,0,0,0,1.307h4.665v4.666a.653.653,0,0,0,1.307,0v-4.666h4.666a.653.653,0,1,0,0-1.307" transform="translate(-117.546 -198.97)" fill="#37474f"/>
    <path id="Path_526" data-name="Path 526" d="M22.712,82.439A.54.54,0,0,1,22.5,82.4,36.43,36.43,0,0,1,50.4,15.087a.545.545,0,0,1-.417,1.006,35.341,35.341,0,1,0-27.059,65.3.545.545,0,0,1-.209,1.048" transform="translate(0 -8.468)" fill="#37474f"/>
    <path id="Path_527" data-name="Path 527" d="M82.689,104.634a18.451,18.451,0,0,1-2.285-.143,18.216,18.216,0,0,1-12.2-6.935.573.573,0,0,1,.9-.7,17.189,17.189,0,1,0,2.428-23.647.573.573,0,1,1-.742-.872,18.335,18.335,0,1,1,11.894,32.3" transform="translate(-46.9 -46.818)" fill="#37474f"/>
    <path id="Path_528" data-name="Path 528" d="M65.341,151.225l-6.091-2.3,1.056,6.422Z" transform="translate(-40.815 -102.591)" fill="#37474f"/>
    <path id="Path_529" data-name="Path 529" d="M445.18,109.761l.306-4.73a.653.653,0,0,0-1.3-.084l-.306,4.73a.653.653,0,1,0,1.3.084" transform="translate(-305.767 -71.872)" fill="#37474f"/>
    <path id="Path_530" data-name="Path 530" d="M443.806,135.837l.166-2.563a.653.653,0,1,0-1.3-.084l-.166,2.562a.653.653,0,1,0,1.3.084" transform="translate(-304.82 -91.328)" fill="#37474f"/>
    <path id="Path_531" data-name="Path 531" d="M442.83,154.081l.074-1.142a.653.653,0,1,0-1.3-.084L441.526,154a.653.653,0,1,0,1.3.084" transform="translate(-304.148 -104.874)" fill="#37474f"/>
    <path id="Path_532" data-name="Path 532" d="M442.078,166.922l.039-.6a.653.653,0,1,0-1.3-.084l-.039.6a.653.653,0,1,0,1.3.084" transform="translate(-303.63 -114.093)" fill="#37474f"/>
    <path id="Path_533" data-name="Path 533" d="M441.426,177.68l.019-.3a.653.653,0,1,0-1.3-.084l-.019.3a.653.653,0,1,0,1.3.084" transform="translate(-303.181 -121.711)" fill="#37474f"/>
  </g>
</svg>
